<svg width="150" height="150" viewBox="0 0 150 150" fill="none" xmlns="http://www.w3.org/2000/svg">
<path d="M150 0H0V150H150V0Z" fill="white"/>
<path d="M13.2743 9.29199H9.29199V13.2743H13.2743V9.29199Z" fill="black"/>
<path d="M17.2567 9.29199H13.2744V13.2743H17.2567V9.29199Z" fill="black"/>
<path d="M21.2389 9.29199H17.2566V13.2743H21.2389V9.29199Z" fill="black"/>
<path d="M25.2213 9.29199H21.239V13.2743H25.2213V9.29199Z" fill="black"/>
<path d="M29.2035 9.29199H25.2212V13.2743H29.2035V9.29199Z" fill="black"/>
<path d="M33.1859 9.29199H29.2036V13.2743H33.1859V9.29199Z" fill="black"/>
<path d="M37.1681 9.29199H33.1858V13.2743H37.1681V9.29199Z" fill="black"/>
<path d="M41.1505 9.29199H37.1682V13.2743H41.1505V9.29199Z" fill="white"/>
<path d="M45.1327 9.29199H41.1504V13.2743H45.1327V9.29199Z" fill="black"/>
<path d="M49.1151 9.29199H45.1328V13.2743H49.1151V9.29199Z" fill="white"/>
<path d="M53.0973 9.29199H49.115V13.2743H53.0973V9.29199Z" fill="white"/>
<path d="M57.0797 9.29199H53.0974V13.2743H57.0797V9.29199Z" fill="black"/>
<path d="M61.0619 9.29199H57.0796V13.2743H61.0619V9.29199Z" fill="black"/>
<path d="M65.0443 9.29199H61.062V13.2743H65.0443V9.29199Z" fill="white"/>
<path d="M69.0265 9.29199H65.0442V13.2743H69.0265V9.29199Z" fill="white"/>
<path d="M73.0089 9.29199H69.0266V13.2743H73.0089V9.29199Z" fill="black"/>
<path d="M76.9911 9.29199H73.0088V13.2743H76.9911V9.29199Z" fill="black"/>
<path d="M80.9735 9.29199H76.9912V13.2743H80.9735V9.29199Z" fill="black"/>
<path d="M84.9557 9.29199H80.9734V13.2743H84.9557V9.29199Z" fill="black"/>
<path d="M88.9381 9.29199H84.9558V13.2743H88.9381V9.29199Z" fill="white"/>
<path d="M92.9203 9.29199H88.938V13.2743H92.9203V9.29199Z" fill="white"/>
<path d="M96.9027 9.29199H92.9204V13.2743H96.9027V9.29199Z" fill="black"/>
<path d="M100.885 9.29199H96.9026V13.2743H100.885V9.29199Z" fill="black"/>
<path d="M104.867 9.29199H100.885V13.2743H104.867V9.29199Z" fill="white"/>
<path d="M108.849 9.29199H104.867V13.2743H108.849V9.29199Z" fill="white"/>
<path d="M112.832 9.29199H108.85V13.2743H112.832V9.29199Z" fill="white"/>
<path d="M116.814 9.29199H112.832V13.2743H116.814V9.29199Z" fill="black"/>
<path d="M120.797 9.29199H116.814V13.2743H120.797V9.29199Z" fill="black"/>
<path d="M124.779 9.29199H120.796V13.2743H124.779V9.29199Z" fill="black"/>
<path d="M128.761 9.29199H124.779V13.2743H128.761V9.29199Z" fill="black"/>
<path d="M132.743 9.29199H128.761V13.2743H132.743V9.29199Z" fill="black"/>
<path d="M136.726 9.29199H132.743V13.2743H136.726V9.29199Z" fill="black"/>
<path d="M140.708 9.29199H136.726V13.2743H140.708V9.29199Z" fill="black"/>
<path d="M13.2743 13.2744H9.29199V17.2567H13.2743V13.2744Z" fill="black"/>
<path d="M17.2567 13.2744H13.2744V17.2567H17.2567V13.2744Z" fill="white"/>
<path d="M21.2389 13.2744H17.2566V17.2567H21.2389V13.2744Z" fill="white"/>
<path d="M25.2213 13.2744H21.239V17.2567H25.2213V13.2744Z" fill="white"/>
<path d="M29.2035 13.2744H25.2212V17.2567H29.2035V13.2744Z" fill="white"/>
<path d="M33.1859 13.2744H29.2036V17.2567H33.1859V13.2744Z" fill="white"/>
<path d="M37.1681 13.2744H33.1858V17.2567H37.1681V13.2744Z" fill="black"/>
<path d="M41.1505 13.2744H37.1682V17.2567H41.1505V13.2744Z" fill="white"/>
<path d="M45.1327 13.2744H41.1504V17.2567H45.1327V13.2744Z" fill="white"/>
<path d="M49.1151 13.2744H45.1328V17.2567H49.1151V13.2744Z" fill="black"/>
<path d="M53.0973 13.2744H49.115V17.2567H53.0973V13.2744Z" fill="black"/>
<path d="M57.0797 13.2744H53.0974V17.2567H57.0797V13.2744Z" fill="white"/>
<path d="M61.0619 13.2744H57.0796V17.2567H61.0619V13.2744Z" fill="white"/>
<path d="M65.0443 13.2744H61.062V17.2567H65.0443V13.2744Z" fill="white"/>
<path d="M69.0265 13.2744H65.0442V17.2567H69.0265V13.2744Z" fill="white"/>
<path d="M73.0089 13.2744H69.0266V17.2567H73.0089V13.2744Z" fill="white"/>
<path d="M76.9911 13.2744H73.0088V17.2567H76.9911V13.2744Z" fill="black"/>
<path d="M80.9735 13.2744H76.9912V17.2567H80.9735V13.2744Z" fill="white"/>
<path d="M84.9557 13.2744H80.9734V17.2567H84.9557V13.2744Z" fill="white"/>
<path d="M88.9381 13.2744H84.9558V17.2567H88.9381V13.2744Z" fill="black"/>
<path d="M92.9203 13.2744H88.938V17.2567H92.9203V13.2744Z" fill="white"/>
<path d="M96.9027 13.2744H92.9204V17.2567H96.9027V13.2744Z" fill="white"/>
<path d="M100.885 13.2744H96.9026V17.2567H100.885V13.2744Z" fill="black"/>
<path d="M104.867 13.2744H100.885V17.2567H104.867V13.2744Z" fill="white"/>
<path d="M108.849 13.2744H104.867V17.2567H108.849V13.2744Z" fill="white"/>
<path d="M112.832 13.2744H108.85V17.2567H112.832V13.2744Z" fill="white"/>
<path d="M116.814 13.2744H112.832V17.2567H116.814V13.2744Z" fill="black"/>
<path d="M120.797 13.2744H116.814V17.2567H120.797V13.2744Z" fill="white"/>
<path d="M124.779 13.2744H120.796V17.2567H124.779V13.2744Z" fill="white"/>
<path d="M128.761 13.2744H124.779V17.2567H128.761V13.2744Z" fill="white"/>
<path d="M132.743 13.2744H128.761V17.2567H132.743V13.2744Z" fill="white"/>
<path d="M136.726 13.2744H132.743V17.2567H136.726V13.2744Z" fill="white"/>
<path d="M140.708 13.2744H136.726V17.2567H140.708V13.2744Z" fill="black"/>
<path d="M13.2743 17.2568H9.29199V21.2391H13.2743V17.2568Z" fill="black"/>
<path d="M17.2567 17.2568H13.2744V21.2391H17.2567V17.2568Z" fill="white"/>
<path d="M21.2389 17.2568H17.2566V21.2391H21.2389V17.2568Z" fill="black"/>
<path d="M25.2213 17.2568H21.239V21.2391H25.2213V17.2568Z" fill="black"/>
<path d="M29.2035 17.2568H25.2212V21.2391H29.2035V17.2568Z" fill="black"/>
<path d="M33.1859 17.2568H29.2036V21.2391H33.1859V17.2568Z" fill="white"/>
<path d="M37.1681 17.2568H33.1858V21.2391H37.1681V17.2568Z" fill="black"/>
<path d="M41.1505 17.2568H37.1682V21.2391H41.1505V17.2568Z" fill="white"/>
<path d="M45.1327 17.2568H41.1504V21.2391H45.1327V17.2568Z" fill="white"/>
<path d="M49.1151 17.2568H45.1328V21.2391H49.1151V17.2568Z" fill="white"/>
<path d="M53.0973 17.2568H49.115V21.2391H53.0973V17.2568Z" fill="black"/>
<path d="M57.0797 17.2568H53.0974V21.2391H57.0797V17.2568Z" fill="white"/>
<path d="M61.0619 17.2568H57.0796V21.2391H61.0619V17.2568Z" fill="black"/>
<path d="M65.0443 17.2568H61.062V21.2391H65.0443V17.2568Z" fill="white"/>
<path d="M69.0265 17.2568H65.0442V21.2391H69.0265V17.2568Z" fill="white"/>
<path d="M73.0089 17.2568H69.0266V21.2391H73.0089V17.2568Z" fill="black"/>
<path d="M76.9911 17.2568H73.0088V21.2391H76.9911V17.2568Z" fill="black"/>
<path d="M80.9735 17.2568H76.9912V21.2391H80.9735V17.2568Z" fill="white"/>
<path d="M84.9557 17.2568H80.9734V21.2391H84.9557V17.2568Z" fill="white"/>
<path d="M88.9381 17.2568H84.9558V21.2391H88.9381V17.2568Z" fill="white"/>
<path d="M92.9203 17.2568H88.938V21.2391H92.9203V17.2568Z" fill="black"/>
<path d="M96.9027 17.2568H92.9204V21.2391H96.9027V17.2568Z" fill="black"/>
<path d="M100.885 17.2568H96.9026V21.2391H100.885V17.2568Z" fill="white"/>
<path d="M104.867 17.2568H100.885V21.2391H104.867V17.2568Z" fill="white"/>
<path d="M108.849 17.2568H104.867V21.2391H108.849V17.2568Z" fill="white"/>
<path d="M112.832 17.2568H108.85V21.2391H112.832V17.2568Z" fill="white"/>
<path d="M116.814 17.2568H112.832V21.2391H116.814V17.2568Z" fill="black"/>
<path d="M120.797 17.2568H116.814V21.2391H120.797V17.2568Z" fill="white"/>
<path d="M124.779 17.2568H120.796V21.2391H124.779V17.2568Z" fill="black"/>
<path d="M128.761 17.2568H124.779V21.2391H128.761V17.2568Z" fill="black"/>
<path d="M132.743 17.2568H128.761V21.2391H132.743V17.2568Z" fill="black"/>
<path d="M136.726 17.2568H132.743V21.2391H136.726V17.2568Z" fill="white"/>
<path d="M140.708 17.2568H136.726V21.2391H140.708V17.2568Z" fill="black"/>
<path d="M13.2743 21.2393H9.29199V25.2216H13.2743V21.2393Z" fill="black"/>
<path d="M17.2567 21.2393H13.2744V25.2216H17.2567V21.2393Z" fill="white"/>
<path d="M21.2389 21.2393H17.2566V25.2216H21.2389V21.2393Z" fill="black"/>
<path d="M25.2213 21.2393H21.239V25.2216H25.2213V21.2393Z" fill="black"/>
<path d="M29.2035 21.2393H25.2212V25.2216H29.2035V21.2393Z" fill="black"/>
<path d="M33.1859 21.2393H29.2036V25.2216H33.1859V21.2393Z" fill="white"/>
<path d="M37.1681 21.2393H33.1858V25.2216H37.1681V21.2393Z" fill="black"/>
<path d="M41.1505 21.2393H37.1682V25.2216H41.1505V21.2393Z" fill="white"/>
<path d="M45.1327 21.2393H41.1504V25.2216H45.1327V21.2393Z" fill="white"/>
<path d="M49.1151 21.2393H45.1328V25.2216H49.1151V21.2393Z" fill="white"/>
<path d="M53.0973 21.2393H49.115V25.2216H53.0973V21.2393Z" fill="white"/>
<path d="M57.0797 21.2393H53.0974V25.2216H57.0797V21.2393Z" fill="white"/>
<path d="M61.0619 21.2393H57.0796V25.2216H61.0619V21.2393Z" fill="black"/>
<path d="M65.0443 21.2393H61.062V25.2216H65.0443V21.2393Z" fill="white"/>
<path d="M69.0265 21.2393H65.0442V25.2216H69.0265V21.2393Z" fill="white"/>
<path d="M73.0089 21.2393H69.0266V25.2216H73.0089V21.2393Z" fill="white"/>
<path d="M76.9911 21.2393H73.0088V25.2216H76.9911V21.2393Z" fill="black"/>
<path d="M80.9735 21.2393H76.9912V25.2216H80.9735V21.2393Z" fill="black"/>
<path d="M84.9557 21.2393H80.9734V25.2216H84.9557V21.2393Z" fill="black"/>
<path d="M88.9381 21.2393H84.9558V25.2216H88.9381V21.2393Z" fill="white"/>
<path d="M92.9203 21.2393H88.938V25.2216H92.9203V21.2393Z" fill="black"/>
<path d="M96.9027 21.2393H92.9204V25.2216H96.9027V21.2393Z" fill="black"/>
<path d="M100.885 21.2393H96.9026V25.2216H100.885V21.2393Z" fill="black"/>
<path d="M104.867 21.2393H100.885V25.2216H104.867V21.2393Z" fill="black"/>
<path d="M108.849 21.2393H104.867V25.2216H108.849V21.2393Z" fill="black"/>
<path d="M112.832 21.2393H108.85V25.2216H112.832V21.2393Z" fill="white"/>
<path d="M116.814 21.2393H112.832V25.2216H116.814V21.2393Z" fill="black"/>
<path d="M120.797 21.2393H116.814V25.2216H120.797V21.2393Z" fill="white"/>
<path d="M124.779 21.2393H120.796V25.2216H124.779V21.2393Z" fill="black"/>
<path d="M128.761 21.2393H124.779V25.2216H128.761V21.2393Z" fill="black"/>
<path d="M132.743 21.2393H128.761V25.2216H132.743V21.2393Z" fill="black"/>
<path d="M136.726 21.2393H132.743V25.2216H136.726V21.2393Z" fill="white"/>
<path d="M140.708 21.2393H136.726V25.2216H140.708V21.2393Z" fill="black"/>
<path d="M13.2743 25.2217H9.29199V29.204H13.2743V25.2217Z" fill="black"/>
<path d="M17.2567 25.2217H13.2744V29.204H17.2567V25.2217Z" fill="white"/>
<path d="M21.2389 25.2217H17.2566V29.204H21.2389V25.2217Z" fill="black"/>
<path d="M25.2213 25.2217H21.239V29.204H25.2213V25.2217Z" fill="black"/>
<path d="M29.2035 25.2217H25.2212V29.204H29.2035V25.2217Z" fill="black"/>
<path d="M33.1859 25.2217H29.2036V29.204H33.1859V25.2217Z" fill="white"/>
<path d="M37.1681 25.2217H33.1858V29.204H37.1681V25.2217Z" fill="black"/>
<path d="M41.1505 25.2217H37.1682V29.204H41.1505V25.2217Z" fill="white"/>
<path d="M45.1327 25.2217H41.1504V29.204H45.1327V25.2217Z" fill="white"/>
<path d="M49.1151 25.2217H45.1328V29.204H49.1151V25.2217Z" fill="black"/>
<path d="M53.0973 25.2217H49.115V29.204H53.0973V25.2217Z" fill="white"/>
<path d="M57.0797 25.2217H53.0974V29.204H57.0797V25.2217Z" fill="black"/>
<path d="M61.0619 25.2217H57.0796V29.204H61.0619V25.2217Z" fill="white"/>
<path d="M65.0443 25.2217H61.062V29.204H65.0443V25.2217Z" fill="white"/>
<path d="M69.0265 25.2217H65.0442V29.204H69.0265V25.2217Z" fill="black"/>
<path d="M73.0089 25.2217H69.0266V29.204H73.0089V25.2217Z" fill="black"/>
<path d="M76.9911 25.2217H73.0088V29.204H76.9911V25.2217Z" fill="black"/>
<path d="M80.9735 25.2217H76.9912V29.204H80.9735V25.2217Z" fill="white"/>
<path d="M84.9557 25.2217H80.9734V29.204H84.9557V25.2217Z" fill="white"/>
<path d="M88.9381 25.2217H84.9558V29.204H88.9381V25.2217Z" fill="black"/>
<path d="M92.9203 25.2217H88.938V29.204H92.9203V25.2217Z" fill="white"/>
<path d="M96.9027 25.2217H92.9204V29.204H96.9027V25.2217Z" fill="white"/>
<path d="M100.885 25.2217H96.9026V29.204H100.885V25.2217Z" fill="white"/>
<path d="M104.867 25.2217H100.885V29.204H104.867V25.2217Z" fill="white"/>
<path d="M108.849 25.2217H104.867V29.204H108.849V25.2217Z" fill="white"/>
<path d="M112.832 25.2217H108.85V29.204H112.832V25.2217Z" fill="white"/>
<path d="M116.814 25.2217H112.832V29.204H116.814V25.2217Z" fill="black"/>
<path d="M120.797 25.2217H116.814V29.204H120.797V25.2217Z" fill="white"/>
<path d="M124.779 25.2217H120.796V29.204H124.779V25.2217Z" fill="black"/>
<path d="M128.761 25.2217H124.779V29.204H128.761V25.2217Z" fill="black"/>
<path d="M132.743 25.2217H128.761V29.204H132.743V25.2217Z" fill="black"/>
<path d="M136.726 25.2217H132.743V29.204H136.726V25.2217Z" fill="white"/>
<path d="M140.708 25.2217H136.726V29.204H140.708V25.2217Z" fill="black"/>
<path d="M13.2743 29.2031H9.29199V33.1854H13.2743V29.2031Z" fill="black"/>
<path d="M17.2567 29.2031H13.2744V33.1854H17.2567V29.2031Z" fill="white"/>
<path d="M21.2389 29.2031H17.2566V33.1854H21.2389V29.2031Z" fill="white"/>
<path d="M25.2213 29.2031H21.239V33.1854H25.2213V29.2031Z" fill="white"/>
<path d="M29.2035 29.2031H25.2212V33.1854H29.2035V29.2031Z" fill="white"/>
<path d="M33.1859 29.2031H29.2036V33.1854H33.1859V29.2031Z" fill="white"/>
<path d="M37.1681 29.2031H33.1858V33.1854H37.1681V29.2031Z" fill="black"/>
<path d="M41.1505 29.2031H37.1682V33.1854H41.1505V29.2031Z" fill="white"/>
<path d="M45.1327 29.2031H41.1504V33.1854H45.1327V29.2031Z" fill="white"/>
<path d="M49.1151 29.2031H45.1328V33.1854H49.1151V29.2031Z" fill="white"/>
<path d="M53.0973 29.2031H49.115V33.1854H53.0973V29.2031Z" fill="black"/>
<path d="M57.0797 29.2031H53.0974V33.1854H57.0797V29.2031Z" fill="white"/>
<path d="M61.0619 29.2031H57.0796V33.1854H61.0619V29.2031Z" fill="black"/>
<path d="M65.0443 29.2031H61.062V33.1854H65.0443V29.2031Z" fill="white"/>
<path d="M69.0265 29.2031H65.0442V33.1854H69.0265V29.2031Z" fill="white"/>
<path d="M73.0089 29.2031H69.0266V33.1854H73.0089V29.2031Z" fill="black"/>
<path d="M76.9911 29.2031H73.0088V33.1854H76.9911V29.2031Z" fill="black"/>
<path d="M80.9735 29.2031H76.9912V33.1854H80.9735V29.2031Z" fill="white"/>
<path d="M84.9557 29.2031H80.9734V33.1854H84.9557V29.2031Z" fill="white"/>
<path d="M88.9381 29.2031H84.9558V33.1854H88.9381V29.2031Z" fill="white"/>
<path d="M92.9203 29.2031H88.938V33.1854H92.9203V29.2031Z" fill="black"/>
<path d="M96.9027 29.2031H92.9204V33.1854H96.9027V29.2031Z" fill="black"/>
<path d="M100.885 29.2031H96.9026V33.1854H100.885V29.2031Z" fill="white"/>
<path d="M104.867 29.2031H100.885V33.1854H104.867V29.2031Z" fill="black"/>
<path d="M108.849 29.2031H104.867V33.1854H108.849V29.2031Z" fill="black"/>
<path d="M112.832 29.2031H108.85V33.1854H112.832V29.2031Z" fill="white"/>
<path d="M116.814 29.2031H112.832V33.1854H116.814V29.2031Z" fill="black"/>
<path d="M120.797 29.2031H116.814V33.1854H120.797V29.2031Z" fill="white"/>
<path d="M124.779 29.2031H120.796V33.1854H124.779V29.2031Z" fill="white"/>
<path d="M128.761 29.2031H124.779V33.1854H128.761V29.2031Z" fill="white"/>
<path d="M132.743 29.2031H128.761V33.1854H132.743V29.2031Z" fill="white"/>
<path d="M136.726 29.2031H132.743V33.1854H136.726V29.2031Z" fill="white"/>
<path d="M140.708 29.2031H136.726V33.1854H140.708V29.2031Z" fill="black"/>
<path d="M13.2743 33.1855H9.29199V37.1678H13.2743V33.1855Z" fill="black"/>
<path d="M17.2567 33.1855H13.2744V37.1678H17.2567V33.1855Z" fill="black"/>
<path d="M21.2389 33.1855H17.2566V37.1678H21.2389V33.1855Z" fill="black"/>
<path d="M25.2213 33.1855H21.239V37.1678H25.2213V33.1855Z" fill="black"/>
<path d="M29.2035 33.1855H25.2212V37.1678H29.2035V33.1855Z" fill="black"/>
<path d="M33.1859 33.1855H29.2036V37.1678H33.1859V33.1855Z" fill="black"/>
<path d="M37.1681 33.1855H33.1858V37.1678H37.1681V33.1855Z" fill="black"/>
<path d="M41.1505 33.1855H37.1682V37.1678H41.1505V33.1855Z" fill="white"/>
<path d="M45.1327 33.1855H41.1504V37.1678H45.1327V33.1855Z" fill="black"/>
<path d="M49.1151 33.1855H45.1328V37.1678H49.1151V33.1855Z" fill="white"/>
<path d="M53.0973 33.1855H49.115V37.1678H53.0973V33.1855Z" fill="black"/>
<path d="M57.0797 33.1855H53.0974V37.1678H57.0797V33.1855Z" fill="white"/>
<path d="M61.0619 33.1855H57.0796V37.1678H61.0619V33.1855Z" fill="black"/>
<path d="M65.0443 33.1855H61.062V37.1678H65.0443V33.1855Z" fill="white"/>
<path d="M69.0265 33.1855H65.0442V37.1678H69.0265V33.1855Z" fill="black"/>
<path d="M73.0089 33.1855H69.0266V37.1678H73.0089V33.1855Z" fill="white"/>
<path d="M76.9911 33.1855H73.0088V37.1678H76.9911V33.1855Z" fill="black"/>
<path d="M80.9735 33.1855H76.9912V37.1678H80.9735V33.1855Z" fill="white"/>
<path d="M84.9557 33.1855H80.9734V37.1678H84.9557V33.1855Z" fill="black"/>
<path d="M88.9381 33.1855H84.9558V37.1678H88.9381V33.1855Z" fill="white"/>
<path d="M92.9203 33.1855H88.938V37.1678H92.9203V33.1855Z" fill="black"/>
<path d="M96.9027 33.1855H92.9204V37.1678H96.9027V33.1855Z" fill="white"/>
<path d="M100.885 33.1855H96.9026V37.1678H100.885V33.1855Z" fill="black"/>
<path d="M104.867 33.1855H100.885V37.1678H104.867V33.1855Z" fill="white"/>
<path d="M108.849 33.1855H104.867V37.1678H108.849V33.1855Z" fill="black"/>
<path d="M112.832 33.1855H108.85V37.1678H112.832V33.1855Z" fill="white"/>
<path d="M116.814 33.1855H112.832V37.1678H116.814V33.1855Z" fill="black"/>
<path d="M120.797 33.1855H116.814V37.1678H120.797V33.1855Z" fill="black"/>
<path d="M124.779 33.1855H120.796V37.1678H124.779V33.1855Z" fill="black"/>
<path d="M128.761 33.1855H124.779V37.1678H128.761V33.1855Z" fill="black"/>
<path d="M132.743 33.1855H128.761V37.1678H132.743V33.1855Z" fill="black"/>
<path d="M136.726 33.1855H132.743V37.1678H136.726V33.1855Z" fill="black"/>
<path d="M140.708 33.1855H136.726V37.1678H140.708V33.1855Z" fill="black"/>
<path d="M13.2743 37.168H9.29199V41.1503H13.2743V37.168Z" fill="white"/>
<path d="M17.2567 37.168H13.2744V41.1503H17.2567V37.168Z" fill="white"/>
<path d="M21.2389 37.168H17.2566V41.1503H21.2389V37.168Z" fill="white"/>
<path d="M25.2213 37.168H21.239V41.1503H25.2213V37.168Z" fill="white"/>
<path d="M29.2035 37.168H25.2212V41.1503H29.2035V37.168Z" fill="white"/>
<path d="M33.1859 37.168H29.2036V41.1503H33.1859V37.168Z" fill="white"/>
<path d="M37.1681 37.168H33.1858V41.1503H37.1681V37.168Z" fill="white"/>
<path d="M41.1505 37.168H37.1682V41.1503H41.1505V37.168Z" fill="white"/>
<path d="M45.1327 37.168H41.1504V41.1503H45.1327V37.168Z" fill="black"/>
<path d="M49.1151 37.168H45.1328V41.1503H49.1151V37.168Z" fill="white"/>
<path d="M53.0973 37.168H49.115V41.1503H53.0973V37.168Z" fill="black"/>
<path d="M57.0797 37.168H53.0974V41.1503H57.0797V37.168Z" fill="black"/>
<path d="M61.0619 37.168H57.0796V41.1503H61.0619V37.168Z" fill="white"/>
<path d="M65.0443 37.168H61.062V41.1503H65.0443V37.168Z" fill="black"/>
<path d="M69.0265 37.168H65.0442V41.1503H69.0265V37.168Z" fill="white"/>
<path d="M73.0089 37.168H69.0266V41.1503H73.0089V37.168Z" fill="black"/>
<path d="M76.9911 37.168H73.0088V41.1503H76.9911V37.168Z" fill="black"/>
<path d="M80.9735 37.168H76.9912V41.1503H80.9735V37.168Z" fill="white"/>
<path d="M84.9557 37.168H80.9734V41.1503H84.9557V37.168Z" fill="white"/>
<path d="M88.9381 37.168H84.9558V41.1503H88.9381V37.168Z" fill="black"/>
<path d="M92.9203 37.168H88.938V41.1503H92.9203V37.168Z" fill="black"/>
<path d="M96.9027 37.168H92.9204V41.1503H96.9027V37.168Z" fill="white"/>
<path d="M100.885 37.168H96.9026V41.1503H100.885V37.168Z" fill="black"/>
<path d="M104.867 37.168H100.885V41.1503H104.867V37.168Z" fill="black"/>
<path d="M108.849 37.168H104.867V41.1503H108.849V37.168Z" fill="white"/>
<path d="M112.832 37.168H108.85V41.1503H112.832V37.168Z" fill="white"/>
<path d="M116.814 37.168H112.832V41.1503H116.814V37.168Z" fill="white"/>
<path d="M120.797 37.168H116.814V41.1503H120.797V37.168Z" fill="white"/>
<path d="M124.779 37.168H120.796V41.1503H124.779V37.168Z" fill="white"/>
<path d="M128.761 37.168H124.779V41.1503H128.761V37.168Z" fill="white"/>
<path d="M132.743 37.168H128.761V41.1503H132.743V37.168Z" fill="white"/>
<path d="M136.726 37.168H132.743V41.1503H136.726V37.168Z" fill="white"/>
<path d="M140.708 37.168H136.726V41.1503H140.708V37.168Z" fill="white"/>
<path d="M13.2743 41.1504H9.29199V45.1327H13.2743V41.1504Z" fill="black"/>
<path d="M17.2567 41.1504H13.2744V45.1327H17.2567V41.1504Z" fill="black"/>
<path d="M21.2389 41.1504H17.2566V45.1327H21.2389V41.1504Z" fill="white"/>
<path d="M25.2213 41.1504H21.239V45.1327H25.2213V41.1504Z" fill="black"/>
<path d="M29.2035 41.1504H25.2212V45.1327H29.2035V41.1504Z" fill="black"/>
<path d="M33.1859 41.1504H29.2036V45.1327H33.1859V41.1504Z" fill="white"/>
<path d="M37.1681 41.1504H33.1858V45.1327H37.1681V41.1504Z" fill="black"/>
<path d="M41.1505 41.1504H37.1682V45.1327H41.1505V41.1504Z" fill="white"/>
<path d="M45.1327 41.1504H41.1504V45.1327H45.1327V41.1504Z" fill="white"/>
<path d="M49.1151 41.1504H45.1328V45.1327H49.1151V41.1504Z" fill="black"/>
<path d="M53.0973 41.1504H49.115V45.1327H53.0973V41.1504Z" fill="black"/>
<path d="M57.0797 41.1504H53.0974V45.1327H57.0797V41.1504Z" fill="black"/>
<path d="M61.0619 41.1504H57.0796V45.1327H61.0619V41.1504Z" fill="white"/>
<path d="M65.0443 41.1504H61.062V45.1327H65.0443V41.1504Z" fill="black"/>
<path d="M69.0265 41.1504H65.0442V45.1327H69.0265V41.1504Z" fill="white"/>
<path d="M73.0089 41.1504H69.0266V45.1327H73.0089V41.1504Z" fill="white"/>
<path d="M76.9911 41.1504H73.0088V45.1327H76.9911V41.1504Z" fill="white"/>
<path d="M80.9735 41.1504H76.9912V45.1327H80.9735V41.1504Z" fill="black"/>
<path d="M84.9557 41.1504H80.9734V45.1327H84.9557V41.1504Z" fill="white"/>
<path d="M88.9381 41.1504H84.9558V45.1327H88.9381V41.1504Z" fill="black"/>
<path d="M92.9203 41.1504H88.938V45.1327H92.9203V41.1504Z" fill="white"/>
<path d="M96.9027 41.1504H92.9204V45.1327H96.9027V41.1504Z" fill="white"/>
<path d="M100.885 41.1504H96.9026V45.1327H100.885V41.1504Z" fill="white"/>
<path d="M104.867 41.1504H100.885V45.1327H104.867V41.1504Z" fill="black"/>
<path d="M108.849 41.1504H104.867V45.1327H108.849V41.1504Z" fill="black"/>
<path d="M112.832 41.1504H108.85V45.1327H112.832V41.1504Z" fill="white"/>
<path d="M116.814 41.1504H112.832V45.1327H116.814V41.1504Z" fill="black"/>
<path d="M120.797 41.1504H116.814V45.1327H120.797V41.1504Z" fill="white"/>
<path d="M124.779 41.1504H120.796V45.1327H124.779V41.1504Z" fill="white"/>
<path d="M128.761 41.1504H124.779V45.1327H128.761V41.1504Z" fill="white"/>
<path d="M132.743 41.1504H128.761V45.1327H132.743V41.1504Z" fill="white"/>
<path d="M136.726 41.1504H132.743V45.1327H136.726V41.1504Z" fill="white"/>
<path d="M140.708 41.1504H136.726V45.1327H140.708V41.1504Z" fill="black"/>
<path d="M13.2743 45.1328H9.29199V49.1151H13.2743V45.1328Z" fill="white"/>
<path d="M17.2567 45.1328H13.2744V49.1151H17.2567V45.1328Z" fill="black"/>
<path d="M21.2389 45.1328H17.2566V49.1151H21.2389V45.1328Z" fill="white"/>
<path d="M25.2213 45.1328H21.239V49.1151H25.2213V45.1328Z" fill="black"/>
<path d="M29.2035 45.1328H25.2212V49.1151H29.2035V45.1328Z" fill="white"/>
<path d="M33.1859 45.1328H29.2036V49.1151H33.1859V45.1328Z" fill="white"/>
<path d="M37.1681 45.1328H33.1858V49.1151H37.1681V45.1328Z" fill="white"/>
<path d="M41.1505 45.1328H37.1682V49.1151H41.1505V45.1328Z" fill="black"/>
<path d="M45.1327 45.1328H41.1504V49.1151H45.1327V45.1328Z" fill="white"/>
<path d="M49.1151 45.1328H45.1328V49.1151H49.1151V45.1328Z" fill="black"/>
<path d="M53.0973 45.1328H49.115V49.1151H53.0973V45.1328Z" fill="white"/>
<path d="M57.0797 45.1328H53.0974V49.1151H57.0797V45.1328Z" fill="white"/>
<path d="M61.0619 45.1328H57.0796V49.1151H61.0619V45.1328Z" fill="black"/>
<path d="M65.0443 45.1328H61.062V49.1151H65.0443V45.1328Z" fill="black"/>
<path d="M69.0265 45.1328H65.0442V49.1151H69.0265V45.1328Z" fill="white"/>
<path d="M73.0089 45.1328H69.0266V49.1151H73.0089V45.1328Z" fill="white"/>
<path d="M76.9911 45.1328H73.0088V49.1151H76.9911V45.1328Z" fill="black"/>
<path d="M80.9735 45.1328H76.9912V49.1151H80.9735V45.1328Z" fill="white"/>
<path d="M84.9557 45.1328H80.9734V49.1151H84.9557V45.1328Z" fill="black"/>
<path d="M88.9381 45.1328H84.9558V49.1151H88.9381V45.1328Z" fill="black"/>
<path d="M92.9203 45.1328H88.938V49.1151H92.9203V45.1328Z" fill="white"/>
<path d="M96.9027 45.1328H92.9204V49.1151H96.9027V45.1328Z" fill="black"/>
<path d="M100.885 45.1328H96.9026V49.1151H100.885V45.1328Z" fill="black"/>
<path d="M104.867 45.1328H100.885V49.1151H104.867V45.1328Z" fill="black"/>
<path d="M108.849 45.1328H104.867V49.1151H108.849V45.1328Z" fill="black"/>
<path d="M112.832 45.1328H108.85V49.1151H112.832V45.1328Z" fill="white"/>
<path d="M116.814 45.1328H112.832V49.1151H116.814V45.1328Z" fill="white"/>
<path d="M120.797 45.1328H116.814V49.1151H120.797V45.1328Z" fill="black"/>
<path d="M124.779 45.1328H120.796V49.1151H124.779V45.1328Z" fill="black"/>
<path d="M128.761 45.1328H124.779V49.1151H128.761V45.1328Z" fill="white"/>
<path d="M132.743 45.1328H128.761V49.1151H132.743V45.1328Z" fill="black"/>
<path d="M136.726 45.1328H132.743V49.1151H136.726V45.1328Z" fill="black"/>
<path d="M140.708 45.1328H136.726V49.1151H140.708V45.1328Z" fill="white"/>
<path d="M13.2743 49.1152H9.29199V53.0975H13.2743V49.1152Z" fill="black"/>
<path d="M17.2567 49.1152H13.2744V53.0975H17.2567V49.1152Z" fill="black"/>
<path d="M21.2389 49.1152H17.2566V53.0975H21.2389V49.1152Z" fill="white"/>
<path d="M25.2213 49.1152H21.239V53.0975H25.2213V49.1152Z" fill="white"/>
<path d="M29.2035 49.1152H25.2212V53.0975H29.2035V49.1152Z" fill="black"/>
<path d="M33.1859 49.1152H29.2036V53.0975H33.1859V49.1152Z" fill="white"/>
<path d="M37.1681 49.1152H33.1858V53.0975H37.1681V49.1152Z" fill="black"/>
<path d="M41.1505 49.1152H37.1682V53.0975H41.1505V49.1152Z" fill="black"/>
<path d="M45.1327 49.1152H41.1504V53.0975H45.1327V49.1152Z" fill="black"/>
<path d="M49.1151 49.1152H45.1328V53.0975H49.1151V49.1152Z" fill="white"/>
<path d="M53.0973 49.1152H49.115V53.0975H53.0973V49.1152Z" fill="black"/>
<path d="M57.0797 49.1152H53.0974V53.0975H57.0797V49.1152Z" fill="black"/>
<path d="M61.0619 49.1152H57.0796V53.0975H61.0619V49.1152Z" fill="white"/>
<path d="M65.0443 49.1152H61.062V53.0975H65.0443V49.1152Z" fill="black"/>
<path d="M69.0265 49.1152H65.0442V53.0975H69.0265V49.1152Z" fill="white"/>
<path d="M73.0089 49.1152H69.0266V53.0975H73.0089V49.1152Z" fill="black"/>
<path d="M76.9911 49.1152H73.0088V53.0975H76.9911V49.1152Z" fill="black"/>
<path d="M80.9735 49.1152H76.9912V53.0975H80.9735V49.1152Z" fill="black"/>
<path d="M84.9557 49.1152H80.9734V53.0975H84.9557V49.1152Z" fill="black"/>
<path d="M88.9381 49.1152H84.9558V53.0975H88.9381V49.1152Z" fill="white"/>
<path d="M92.9203 49.1152H88.938V53.0975H92.9203V49.1152Z" fill="black"/>
<path d="M96.9027 49.1152H92.9204V53.0975H96.9027V49.1152Z" fill="black"/>
<path d="M100.885 49.1152H96.9026V53.0975H100.885V49.1152Z" fill="white"/>
<path d="M104.867 49.1152H100.885V53.0975H104.867V49.1152Z" fill="black"/>
<path d="M108.849 49.1152H104.867V53.0975H108.849V49.1152Z" fill="white"/>
<path d="M112.832 49.1152H108.85V53.0975H112.832V49.1152Z" fill="black"/>
<path d="M116.814 49.1152H112.832V53.0975H116.814V49.1152Z" fill="white"/>
<path d="M120.797 49.1152H116.814V53.0975H120.797V49.1152Z" fill="white"/>
<path d="M124.779 49.1152H120.796V53.0975H124.779V49.1152Z" fill="white"/>
<path d="M128.761 49.1152H124.779V53.0975H128.761V49.1152Z" fill="white"/>
<path d="M132.743 49.1152H128.761V53.0975H132.743V49.1152Z" fill="white"/>
<path d="M136.726 49.1152H132.743V53.0975H136.726V49.1152Z" fill="black"/>
<path d="M140.708 49.1152H136.726V53.0975H140.708V49.1152Z" fill="black"/>
<path d="M13.2743 53.0977H9.29199V57.08H13.2743V53.0977Z" fill="white"/>
<path d="M17.2567 53.0977H13.2744V57.08H17.2567V53.0977Z" fill="black"/>
<path d="M21.2389 53.0977H17.2566V57.08H21.2389V53.0977Z" fill="black"/>
<path d="M25.2213 53.0977H21.239V57.08H25.2213V53.0977Z" fill="white"/>
<path d="M29.2035 53.0977H25.2212V57.08H29.2035V53.0977Z" fill="white"/>
<path d="M33.1859 53.0977H29.2036V57.08H33.1859V53.0977Z" fill="white"/>
<path d="M37.1681 53.0977H33.1858V57.08H37.1681V53.0977Z" fill="white"/>
<path d="M41.1505 53.0977H37.1682V57.08H41.1505V53.0977Z" fill="black"/>
<path d="M45.1327 53.0977H41.1504V57.08H45.1327V53.0977Z" fill="white"/>
<path d="M49.1151 53.0977H45.1328V57.08H49.1151V53.0977Z" fill="black"/>
<path d="M53.0973 53.0977H49.115V57.08H53.0973V53.0977Z" fill="black"/>
<path d="M57.0797 53.0977H53.0974V57.08H57.0797V53.0977Z" fill="black"/>
<path d="M61.0619 53.0977H57.0796V57.08H61.0619V53.0977Z" fill="black"/>
<path d="M65.0443 53.0977H61.062V57.08H65.0443V53.0977Z" fill="black"/>
<path d="M69.0265 53.0977H65.0442V57.08H69.0265V53.0977Z" fill="white"/>
<path d="M73.0089 53.0977H69.0266V57.08H73.0089V53.0977Z" fill="white"/>
<path d="M76.9911 53.0977H73.0088V57.08H76.9911V53.0977Z" fill="black"/>
<path d="M80.9735 53.0977H76.9912V57.08H80.9735V53.0977Z" fill="black"/>
<path d="M84.9557 53.0977H80.9734V57.08H84.9557V53.0977Z" fill="white"/>
<path d="M88.9381 53.0977H84.9558V57.08H88.9381V53.0977Z" fill="white"/>
<path d="M92.9203 53.0977H88.938V57.08H92.9203V53.0977Z" fill="white"/>
<path d="M96.9027 53.0977H92.9204V57.08H96.9027V53.0977Z" fill="white"/>
<path d="M100.885 53.0977H96.9026V57.08H100.885V53.0977Z" fill="black"/>
<path d="M104.867 53.0977H100.885V57.08H104.867V53.0977Z" fill="white"/>
<path d="M108.849 53.0977H104.867V57.08H108.849V53.0977Z" fill="black"/>
<path d="M112.832 53.0977H108.85V57.08H112.832V53.0977Z" fill="white"/>
<path d="M116.814 53.0977H112.832V57.08H116.814V53.0977Z" fill="black"/>
<path d="M120.797 53.0977H116.814V57.08H120.797V53.0977Z" fill="white"/>
<path d="M124.779 53.0977H120.796V57.08H124.779V53.0977Z" fill="black"/>
<path d="M128.761 53.0977H124.779V57.08H128.761V53.0977Z" fill="black"/>
<path d="M132.743 53.0977H128.761V57.08H132.743V53.0977Z" fill="black"/>
<path d="M136.726 53.0977H132.743V57.08H136.726V53.0977Z" fill="white"/>
<path d="M140.708 53.0977H136.726V57.08H140.708V53.0977Z" fill="white"/>
<path d="M13.2743 57.0801H9.29199V61.0624H13.2743V57.0801Z" fill="white"/>
<path d="M17.2567 57.0801H13.2744V61.0624H17.2567V57.0801Z" fill="white"/>
<path d="M21.2389 57.0801H17.2566V61.0624H21.2389V57.0801Z" fill="white"/>
<path d="M25.2213 57.0801H21.239V61.0624H25.2213V57.0801Z" fill="black"/>
<path d="M29.2035 57.0801H25.2212V61.0624H29.2035V57.0801Z" fill="black"/>
<path d="M33.1859 57.0801H29.2036V61.0624H33.1859V57.0801Z" fill="black"/>
<path d="M37.1681 57.0801H33.1858V61.0624H37.1681V57.0801Z" fill="black"/>
<path d="M41.1505 57.0801H37.1682V61.0624H41.1505V57.0801Z" fill="white"/>
<path d="M45.1327 57.0801H41.1504V61.0624H45.1327V57.0801Z" fill="black"/>
<path d="M49.1151 57.0801H45.1328V61.0624H49.1151V57.0801Z" fill="black"/>
<path d="M53.0973 57.0801H49.115V61.0624H53.0973V57.0801Z" fill="white"/>
<path d="M57.0797 57.0801H53.0974V61.0624H57.0797V57.0801Z" fill="black"/>
<path d="M61.0619 57.0801H57.0796V61.0624H61.0619V57.0801Z" fill="black"/>
<path d="M65.0443 57.0801H61.062V61.0624H65.0443V57.0801Z" fill="black"/>
<path d="M69.0265 57.0801H65.0442V61.0624H69.0265V57.0801Z" fill="white"/>
<path d="M73.0089 57.0801H69.0266V61.0624H73.0089V57.0801Z" fill="black"/>
<path d="M76.9911 57.0801H73.0088V61.0624H76.9911V57.0801Z" fill="black"/>
<path d="M80.9735 57.0801H76.9912V61.0624H80.9735V57.0801Z" fill="white"/>
<path d="M84.9557 57.0801H80.9734V61.0624H84.9557V57.0801Z" fill="white"/>
<path d="M88.9381 57.0801H84.9558V61.0624H88.9381V57.0801Z" fill="black"/>
<path d="M92.9203 57.0801H88.938V61.0624H92.9203V57.0801Z" fill="white"/>
<path d="M96.9027 57.0801H92.9204V61.0624H96.9027V57.0801Z" fill="white"/>
<path d="M100.885 57.0801H96.9026V61.0624H100.885V57.0801Z" fill="white"/>
<path d="M104.867 57.0801H100.885V61.0624H104.867V57.0801Z" fill="white"/>
<path d="M108.849 57.0801H104.867V61.0624H108.849V57.0801Z" fill="black"/>
<path d="M112.832 57.0801H108.85V61.0624H112.832V57.0801Z" fill="white"/>
<path d="M116.814 57.0801H112.832V61.0624H116.814V57.0801Z" fill="black"/>
<path d="M120.797 57.0801H116.814V61.0624H120.797V57.0801Z" fill="black"/>
<path d="M124.779 57.0801H120.796V61.0624H124.779V57.0801Z" fill="white"/>
<path d="M128.761 57.0801H124.779V61.0624H128.761V57.0801Z" fill="white"/>
<path d="M132.743 57.0801H128.761V61.0624H132.743V57.0801Z" fill="white"/>
<path d="M136.726 57.0801H132.743V61.0624H136.726V57.0801Z" fill="black"/>
<path d="M140.708 57.0801H136.726V61.0624H140.708V57.0801Z" fill="black"/>
<path d="M13.2743 61.0615H9.29199V65.0438H13.2743V61.0615Z" fill="black"/>
<path d="M17.2567 61.0615H13.2744V65.0438H17.2567V61.0615Z" fill="black"/>
<path d="M21.2389 61.0615H17.2566V65.0438H21.2389V61.0615Z" fill="black"/>
<path d="M25.2213 61.0615H21.239V65.0438H25.2213V61.0615Z" fill="white"/>
<path d="M29.2035 61.0615H25.2212V65.0438H29.2035V61.0615Z" fill="white"/>
<path d="M33.1859 61.0615H29.2036V65.0438H33.1859V61.0615Z" fill="black"/>
<path d="M37.1681 61.0615H33.1858V65.0438H37.1681V61.0615Z" fill="white"/>
<path d="M41.1505 61.0615H37.1682V65.0438H41.1505V61.0615Z" fill="white"/>
<path d="M45.1327 61.0615H41.1504V65.0438H45.1327V61.0615Z" fill="white"/>
<path d="M49.1151 61.0615H45.1328V65.0438H49.1151V61.0615Z" fill="white"/>
<path d="M53.0973 61.0615H49.115V65.0438H53.0973V61.0615Z" fill="white"/>
<path d="M57.0797 61.0615H53.0974V65.0438H57.0797V61.0615Z" fill="white"/>
<path d="M61.0619 61.0615H57.0796V65.0438H61.0619V61.0615Z" fill="white"/>
<path d="M65.0443 61.0615H61.062V65.0438H65.0443V61.0615Z" fill="black"/>
<path d="M69.0265 61.0615H65.0442V65.0438H69.0265V61.0615Z" fill="black"/>
<path d="M73.0089 61.0615H69.0266V65.0438H73.0089V61.0615Z" fill="white"/>
<path d="M76.9911 61.0615H73.0088V65.0438H76.9911V61.0615Z" fill="black"/>
<path d="M80.9735 61.0615H76.9912V65.0438H80.9735V61.0615Z" fill="white"/>
<path d="M84.9557 61.0615H80.9734V65.0438H84.9557V61.0615Z" fill="black"/>
<path d="M88.9381 61.0615H84.9558V65.0438H88.9381V61.0615Z" fill="white"/>
<path d="M92.9203 61.0615H88.938V65.0438H92.9203V61.0615Z" fill="white"/>
<path d="M96.9027 61.0615H92.9204V65.0438H96.9027V61.0615Z" fill="white"/>
<path d="M100.885 61.0615H96.9026V65.0438H100.885V61.0615Z" fill="black"/>
<path d="M104.867 61.0615H100.885V65.0438H104.867V61.0615Z" fill="black"/>
<path d="M108.849 61.0615H104.867V65.0438H108.849V61.0615Z" fill="white"/>
<path d="M112.832 61.0615H108.85V65.0438H112.832V61.0615Z" fill="black"/>
<path d="M116.814 61.0615H112.832V65.0438H116.814V61.0615Z" fill="white"/>
<path d="M120.797 61.0615H116.814V65.0438H120.797V61.0615Z" fill="black"/>
<path d="M124.779 61.0615H120.796V65.0438H124.779V61.0615Z" fill="white"/>
<path d="M128.761 61.0615H124.779V65.0438H128.761V61.0615Z" fill="white"/>
<path d="M132.743 61.0615H128.761V65.0438H132.743V61.0615Z" fill="white"/>
<path d="M136.726 61.0615H132.743V65.0438H136.726V61.0615Z" fill="white"/>
<path d="M140.708 61.0615H136.726V65.0438H140.708V61.0615Z" fill="white"/>
<path d="M13.2743 65.0439H9.29199V69.0262H13.2743V65.0439Z" fill="black"/>
<path d="M17.2567 65.0439H13.2744V69.0262H17.2567V65.0439Z" fill="black"/>
<path d="M21.2389 65.0439H17.2566V69.0262H21.2389V65.0439Z" fill="white"/>
<path d="M25.2213 65.0439H21.239V69.0262H25.2213V65.0439Z" fill="black"/>
<path d="M29.2035 65.0439H25.2212V69.0262H29.2035V65.0439Z" fill="black"/>
<path d="M33.1859 65.0439H29.2036V69.0262H33.1859V65.0439Z" fill="black"/>
<path d="M37.1681 65.0439H33.1858V69.0262H37.1681V65.0439Z" fill="black"/>
<path d="M41.1505 65.0439H37.1682V69.0262H41.1505V65.0439Z" fill="white"/>
<path d="M45.1327 65.0439H41.1504V69.0262H45.1327V65.0439Z" fill="black"/>
<path d="M49.1151 65.0439H45.1328V69.0262H49.1151V65.0439Z" fill="black"/>
<path d="M53.0973 65.0439H49.115V69.0262H53.0973V65.0439Z" fill="black"/>
<path d="M57.0797 65.0439H53.0974V69.0262H57.0797V65.0439Z" fill="black"/>
<path d="M61.0619 65.0439H57.0796V69.0262H61.0619V65.0439Z" fill="black"/>
<path d="M65.0443 65.0439H61.062V69.0262H65.0443V65.0439Z" fill="black"/>
<path d="M69.0265 65.0439H65.0442V69.0262H69.0265V65.0439Z" fill="white"/>
<path d="M73.0089 65.0439H69.0266V69.0262H73.0089V65.0439Z" fill="white"/>
<path d="M76.9911 65.0439H73.0088V69.0262H76.9911V65.0439Z" fill="black"/>
<path d="M80.9735 65.0439H76.9912V69.0262H80.9735V65.0439Z" fill="black"/>
<path d="M84.9557 65.0439H80.9734V69.0262H84.9557V65.0439Z" fill="white"/>
<path d="M88.9381 65.0439H84.9558V69.0262H88.9381V65.0439Z" fill="black"/>
<path d="M92.9203 65.0439H88.938V69.0262H92.9203V65.0439Z" fill="white"/>
<path d="M96.9027 65.0439H92.9204V69.0262H96.9027V65.0439Z" fill="black"/>
<path d="M100.885 65.0439H96.9026V69.0262H100.885V65.0439Z" fill="white"/>
<path d="M104.867 65.0439H100.885V69.0262H104.867V65.0439Z" fill="white"/>
<path d="M108.849 65.0439H104.867V69.0262H108.849V65.0439Z" fill="black"/>
<path d="M112.832 65.0439H108.85V69.0262H112.832V65.0439Z" fill="black"/>
<path d="M116.814 65.0439H112.832V69.0262H116.814V65.0439Z" fill="black"/>
<path d="M120.797 65.0439H116.814V69.0262H120.797V65.0439Z" fill="black"/>
<path d="M124.779 65.0439H120.796V69.0262H124.779V65.0439Z" fill="white"/>
<path d="M128.761 65.0439H124.779V69.0262H128.761V65.0439Z" fill="white"/>
<path d="M132.743 65.0439H128.761V69.0262H132.743V65.0439Z" fill="white"/>
<path d="M136.726 65.0439H132.743V69.0262H136.726V65.0439Z" fill="white"/>
<path d="M140.708 65.0439H136.726V69.0262H140.708V65.0439Z" fill="white"/>
<path d="M13.2743 69.0264H9.29199V73.0087H13.2743V69.0264Z" fill="white"/>
<path d="M17.2567 69.0264H13.2744V73.0087H17.2567V69.0264Z" fill="white"/>
<path d="M21.2389 69.0264H17.2566V73.0087H21.2389V69.0264Z" fill="black"/>
<path d="M25.2213 69.0264H21.239V73.0087H25.2213V69.0264Z" fill="black"/>
<path d="M29.2035 69.0264H25.2212V73.0087H29.2035V69.0264Z" fill="white"/>
<path d="M33.1859 69.0264H29.2036V73.0087H33.1859V69.0264Z" fill="white"/>
<path d="M37.1681 69.0264H33.1858V73.0087H37.1681V69.0264Z" fill="white"/>
<path d="M41.1505 69.0264H37.1682V73.0087H41.1505V69.0264Z" fill="white"/>
<path d="M45.1327 69.0264H41.1504V73.0087H45.1327V69.0264Z" fill="black"/>
<path d="M49.1151 69.0264H45.1328V73.0087H49.1151V69.0264Z" fill="white"/>
<path d="M53.0973 69.0264H49.115V73.0087H53.0973V69.0264Z" fill="white"/>
<path d="M57.0797 69.0264H53.0974V73.0087H57.0797V69.0264Z" fill="black"/>
<path d="M61.0619 69.0264H57.0796V73.0087H61.0619V69.0264Z" fill="white"/>
<path d="M65.0443 69.0264H61.062V73.0087H65.0443V69.0264Z" fill="white"/>
<path d="M69.0265 69.0264H65.0442V73.0087H69.0265V69.0264Z" fill="white"/>
<path d="M73.0089 69.0264H69.0266V73.0087H73.0089V69.0264Z" fill="black"/>
<path d="M76.9911 69.0264H73.0088V73.0087H76.9911V69.0264Z" fill="white"/>
<path d="M80.9735 69.0264H76.9912V73.0087H80.9735V69.0264Z" fill="white"/>
<path d="M84.9557 69.0264H80.9734V73.0087H84.9557V69.0264Z" fill="black"/>
<path d="M88.9381 69.0264H84.9558V73.0087H88.9381V69.0264Z" fill="black"/>
<path d="M92.9203 69.0264H88.938V73.0087H92.9203V69.0264Z" fill="black"/>
<path d="M96.9027 69.0264H92.9204V73.0087H96.9027V69.0264Z" fill="white"/>
<path d="M100.885 69.0264H96.9026V73.0087H100.885V69.0264Z" fill="black"/>
<path d="M104.867 69.0264H100.885V73.0087H104.867V69.0264Z" fill="black"/>
<path d="M108.849 69.0264H104.867V73.0087H108.849V69.0264Z" fill="white"/>
<path d="M112.832 69.0264H108.85V73.0087H112.832V69.0264Z" fill="black"/>
<path d="M116.814 69.0264H112.832V73.0087H116.814V69.0264Z" fill="white"/>
<path d="M120.797 69.0264H116.814V73.0087H120.797V69.0264Z" fill="white"/>
<path d="M124.779 69.0264H120.796V73.0087H124.779V69.0264Z" fill="black"/>
<path d="M128.761 69.0264H124.779V73.0087H128.761V69.0264Z" fill="white"/>
<path d="M132.743 69.0264H128.761V73.0087H132.743V69.0264Z" fill="black"/>
<path d="M136.726 69.0264H132.743V73.0087H136.726V69.0264Z" fill="white"/>
<path d="M140.708 69.0264H136.726V73.0087H140.708V69.0264Z" fill="black"/>
<path d="M13.2743 73.0088H9.29199V76.9911H13.2743V73.0088Z" fill="white"/>
<path d="M17.2567 73.0088H13.2744V76.9911H17.2567V73.0088Z" fill="black"/>
<path d="M21.2389 73.0088H17.2566V76.9911H21.2389V73.0088Z" fill="black"/>
<path d="M25.2213 73.0088H21.239V76.9911H25.2213V73.0088Z" fill="black"/>
<path d="M29.2035 73.0088H25.2212V76.9911H29.2035V73.0088Z" fill="black"/>
<path d="M33.1859 73.0088H29.2036V76.9911H33.1859V73.0088Z" fill="white"/>
<path d="M37.1681 73.0088H33.1858V76.9911H37.1681V73.0088Z" fill="black"/>
<path d="M41.1505 73.0088H37.1682V76.9911H41.1505V73.0088Z" fill="white"/>
<path d="M45.1327 73.0088H41.1504V76.9911H45.1327V73.0088Z" fill="white"/>
<path d="M49.1151 73.0088H45.1328V76.9911H49.1151V73.0088Z" fill="white"/>
<path d="M53.0973 73.0088H49.115V76.9911H53.0973V73.0088Z" fill="white"/>
<path d="M57.0797 73.0088H53.0974V76.9911H57.0797V73.0088Z" fill="white"/>
<path d="M61.0619 73.0088H57.0796V76.9911H61.0619V73.0088Z" fill="white"/>
<path d="M65.0443 73.0088H61.062V76.9911H65.0443V73.0088Z" fill="white"/>
<path d="M69.0265 73.0088H65.0442V76.9911H69.0265V73.0088Z" fill="black"/>
<path d="M73.0089 73.0088H69.0266V76.9911H73.0089V73.0088Z" fill="white"/>
<path d="M76.9911 73.0088H73.0088V76.9911H76.9911V73.0088Z" fill="white"/>
<path d="M80.9735 73.0088H76.9912V76.9911H80.9735V73.0088Z" fill="black"/>
<path d="M84.9557 73.0088H80.9734V76.9911H84.9557V73.0088Z" fill="white"/>
<path d="M88.9381 73.0088H84.9558V76.9911H88.9381V73.0088Z" fill="white"/>
<path d="M92.9203 73.0088H88.938V76.9911H92.9203V73.0088Z" fill="black"/>
<path d="M96.9027 73.0088H92.9204V76.9911H96.9027V73.0088Z" fill="white"/>
<path d="M100.885 73.0088H96.9026V76.9911H100.885V73.0088Z" fill="black"/>
<path d="M104.867 73.0088H100.885V76.9911H104.867V73.0088Z" fill="white"/>
<path d="M108.849 73.0088H104.867V76.9911H108.849V73.0088Z" fill="black"/>
<path d="M112.832 73.0088H108.85V76.9911H112.832V73.0088Z" fill="white"/>
<path d="M116.814 73.0088H112.832V76.9911H116.814V73.0088Z" fill="black"/>
<path d="M120.797 73.0088H116.814V76.9911H120.797V73.0088Z" fill="black"/>
<path d="M124.779 73.0088H120.796V76.9911H124.779V73.0088Z" fill="black"/>
<path d="M128.761 73.0088H124.779V76.9911H128.761V73.0088Z" fill="black"/>
<path d="M132.743 73.0088H128.761V76.9911H132.743V73.0088Z" fill="white"/>
<path d="M136.726 73.0088H132.743V76.9911H136.726V73.0088Z" fill="black"/>
<path d="M140.708 73.0088H136.726V76.9911H140.708V73.0088Z" fill="black"/>
<path d="M13.2743 76.9912H9.29199V80.9735H13.2743V76.9912Z" fill="white"/>
<path d="M17.2567 76.9912H13.2744V80.9735H17.2567V76.9912Z" fill="white"/>
<path d="M21.2389 76.9912H17.2566V80.9735H21.2389V76.9912Z" fill="white"/>
<path d="M25.2213 76.9912H21.239V80.9735H25.2213V76.9912Z" fill="white"/>
<path d="M29.2035 76.9912H25.2212V80.9735H29.2035V76.9912Z" fill="white"/>
<path d="M33.1859 76.9912H29.2036V80.9735H33.1859V76.9912Z" fill="black"/>
<path d="M37.1681 76.9912H33.1858V80.9735H37.1681V76.9912Z" fill="white"/>
<path d="M41.1505 76.9912H37.1682V80.9735H41.1505V76.9912Z" fill="black"/>
<path d="M45.1327 76.9912H41.1504V80.9735H45.1327V76.9912Z" fill="black"/>
<path d="M49.1151 76.9912H45.1328V80.9735H49.1151V76.9912Z" fill="black"/>
<path d="M53.0973 76.9912H49.115V80.9735H53.0973V76.9912Z" fill="black"/>
<path d="M57.0797 76.9912H53.0974V80.9735H57.0797V76.9912Z" fill="black"/>
<path d="M61.0619 76.9912H57.0796V80.9735H61.0619V76.9912Z" fill="black"/>
<path d="M65.0443 76.9912H61.062V80.9735H65.0443V76.9912Z" fill="black"/>
<path d="M69.0265 76.9912H65.0442V80.9735H69.0265V76.9912Z" fill="black"/>
<path d="M73.0089 76.9912H69.0266V80.9735H73.0089V76.9912Z" fill="white"/>
<path d="M76.9911 76.9912H73.0088V80.9735H76.9911V76.9912Z" fill="black"/>
<path d="M80.9735 76.9912H76.9912V80.9735H80.9735V76.9912Z" fill="white"/>
<path d="M84.9557 76.9912H80.9734V80.9735H84.9557V76.9912Z" fill="white"/>
<path d="M88.9381 76.9912H84.9558V80.9735H88.9381V76.9912Z" fill="black"/>
<path d="M92.9203 76.9912H88.938V80.9735H92.9203V76.9912Z" fill="black"/>
<path d="M96.9027 76.9912H92.9204V80.9735H96.9027V76.9912Z" fill="black"/>
<path d="M100.885 76.9912H96.9026V80.9735H100.885V76.9912Z" fill="white"/>
<path d="M104.867 76.9912H100.885V80.9735H104.867V76.9912Z" fill="white"/>
<path d="M108.849 76.9912H104.867V80.9735H108.849V76.9912Z" fill="white"/>
<path d="M112.832 76.9912H108.85V80.9735H112.832V76.9912Z" fill="white"/>
<path d="M116.814 76.9912H112.832V80.9735H116.814V76.9912Z" fill="black"/>
<path d="M120.797 76.9912H116.814V80.9735H120.797V76.9912Z" fill="black"/>
<path d="M124.779 76.9912H120.796V80.9735H124.779V76.9912Z" fill="black"/>
<path d="M128.761 76.9912H124.779V80.9735H128.761V76.9912Z" fill="white"/>
<path d="M132.743 76.9912H128.761V80.9735H132.743V76.9912Z" fill="white"/>
<path d="M136.726 76.9912H132.743V80.9735H136.726V76.9912Z" fill="black"/>
<path d="M140.708 76.9912H136.726V80.9735H140.708V76.9912Z" fill="black"/>
<path d="M13.2743 80.9736H9.29199V84.9559H13.2743V80.9736Z" fill="black"/>
<path d="M17.2567 80.9736H13.2744V84.9559H17.2567V80.9736Z" fill="black"/>
<path d="M21.2389 80.9736H17.2566V84.9559H21.2389V80.9736Z" fill="white"/>
<path d="M25.2213 80.9736H21.239V84.9559H25.2213V80.9736Z" fill="black"/>
<path d="M29.2035 80.9736H25.2212V84.9559H29.2035V80.9736Z" fill="white"/>
<path d="M33.1859 80.9736H29.2036V84.9559H33.1859V80.9736Z" fill="white"/>
<path d="M37.1681 80.9736H33.1858V84.9559H37.1681V80.9736Z" fill="black"/>
<path d="M41.1505 80.9736H37.1682V84.9559H41.1505V80.9736Z" fill="black"/>
<path d="M45.1327 80.9736H41.1504V84.9559H45.1327V80.9736Z" fill="white"/>
<path d="M49.1151 80.9736H45.1328V84.9559H49.1151V80.9736Z" fill="white"/>
<path d="M53.0973 80.9736H49.115V84.9559H53.0973V80.9736Z" fill="black"/>
<path d="M57.0797 80.9736H53.0974V84.9559H57.0797V80.9736Z" fill="black"/>
<path d="M61.0619 80.9736H57.0796V84.9559H61.0619V80.9736Z" fill="white"/>
<path d="M65.0443 80.9736H61.062V84.9559H65.0443V80.9736Z" fill="white"/>
<path d="M69.0265 80.9736H65.0442V84.9559H69.0265V80.9736Z" fill="white"/>
<path d="M73.0089 80.9736H69.0266V84.9559H73.0089V80.9736Z" fill="black"/>
<path d="M76.9911 80.9736H73.0088V84.9559H76.9911V80.9736Z" fill="white"/>
<path d="M80.9735 80.9736H76.9912V84.9559H80.9735V80.9736Z" fill="white"/>
<path d="M84.9557 80.9736H80.9734V84.9559H84.9557V80.9736Z" fill="white"/>
<path d="M88.9381 80.9736H84.9558V84.9559H88.9381V80.9736Z" fill="black"/>
<path d="M92.9203 80.9736H88.938V84.9559H92.9203V80.9736Z" fill="white"/>
<path d="M96.9027 80.9736H92.9204V84.9559H96.9027V80.9736Z" fill="white"/>
<path d="M100.885 80.9736H96.9026V84.9559H100.885V80.9736Z" fill="black"/>
<path d="M104.867 80.9736H100.885V84.9559H104.867V80.9736Z" fill="black"/>
<path d="M108.849 80.9736H104.867V84.9559H108.849V80.9736Z" fill="white"/>
<path d="M112.832 80.9736H108.85V84.9559H112.832V80.9736Z" fill="white"/>
<path d="M116.814 80.9736H112.832V84.9559H116.814V80.9736Z" fill="white"/>
<path d="M120.797 80.9736H116.814V84.9559H120.797V80.9736Z" fill="white"/>
<path d="M124.779 80.9736H120.796V84.9559H124.779V80.9736Z" fill="black"/>
<path d="M128.761 80.9736H124.779V84.9559H128.761V80.9736Z" fill="white"/>
<path d="M132.743 80.9736H128.761V84.9559H132.743V80.9736Z" fill="white"/>
<path d="M136.726 80.9736H132.743V84.9559H136.726V80.9736Z" fill="white"/>
<path d="M140.708 80.9736H136.726V84.9559H140.708V80.9736Z" fill="black"/>
<path d="M13.2743 84.9561H9.29199V88.9384H13.2743V84.9561Z" fill="white"/>
<path d="M17.2567 84.9561H13.2744V88.9384H17.2567V84.9561Z" fill="white"/>
<path d="M21.2389 84.9561H17.2566V88.9384H21.2389V84.9561Z" fill="white"/>
<path d="M25.2213 84.9561H21.239V88.9384H25.2213V84.9561Z" fill="black"/>
<path d="M29.2035 84.9561H25.2212V88.9384H29.2035V84.9561Z" fill="white"/>
<path d="M33.1859 84.9561H29.2036V88.9384H33.1859V84.9561Z" fill="white"/>
<path d="M37.1681 84.9561H33.1858V88.9384H37.1681V84.9561Z" fill="white"/>
<path d="M41.1505 84.9561H37.1682V88.9384H41.1505V84.9561Z" fill="white"/>
<path d="M45.1327 84.9561H41.1504V88.9384H45.1327V84.9561Z" fill="black"/>
<path d="M49.1151 84.9561H45.1328V88.9384H49.1151V84.9561Z" fill="black"/>
<path d="M53.0973 84.9561H49.115V88.9384H53.0973V84.9561Z" fill="black"/>
<path d="M57.0797 84.9561H53.0974V88.9384H57.0797V84.9561Z" fill="white"/>
<path d="M61.0619 84.9561H57.0796V88.9384H61.0619V84.9561Z" fill="black"/>
<path d="M65.0443 84.9561H61.062V88.9384H65.0443V84.9561Z" fill="white"/>
<path d="M69.0265 84.9561H65.0442V88.9384H69.0265V84.9561Z" fill="black"/>
<path d="M73.0089 84.9561H69.0266V88.9384H73.0089V84.9561Z" fill="white"/>
<path d="M76.9911 84.9561H73.0088V88.9384H76.9911V84.9561Z" fill="black"/>
<path d="M80.9735 84.9561H76.9912V88.9384H80.9735V84.9561Z" fill="white"/>
<path d="M84.9557 84.9561H80.9734V88.9384H84.9557V84.9561Z" fill="white"/>
<path d="M88.9381 84.9561H84.9558V88.9384H88.9381V84.9561Z" fill="black"/>
<path d="M92.9203 84.9561H88.938V88.9384H92.9203V84.9561Z" fill="white"/>
<path d="M96.9027 84.9561H92.9204V88.9384H96.9027V84.9561Z" fill="white"/>
<path d="M100.885 84.9561H96.9026V88.9384H100.885V84.9561Z" fill="white"/>
<path d="M104.867 84.9561H100.885V88.9384H104.867V84.9561Z" fill="white"/>
<path d="M108.849 84.9561H104.867V88.9384H108.849V84.9561Z" fill="black"/>
<path d="M112.832 84.9561H108.85V88.9384H112.832V84.9561Z" fill="black"/>
<path d="M116.814 84.9561H112.832V88.9384H116.814V84.9561Z" fill="white"/>
<path d="M120.797 84.9561H116.814V88.9384H120.797V84.9561Z" fill="white"/>
<path d="M124.779 84.9561H120.796V88.9384H124.779V84.9561Z" fill="black"/>
<path d="M128.761 84.9561H124.779V88.9384H128.761V84.9561Z" fill="white"/>
<path d="M132.743 84.9561H128.761V88.9384H132.743V84.9561Z" fill="black"/>
<path d="M136.726 84.9561H132.743V88.9384H136.726V84.9561Z" fill="black"/>
<path d="M140.708 84.9561H136.726V88.9384H140.708V84.9561Z" fill="black"/>
<path d="M13.2743 88.9385H9.29199V92.9208H13.2743V88.9385Z" fill="white"/>
<path d="M17.2567 88.9385H13.2744V92.9208H17.2567V88.9385Z" fill="white"/>
<path d="M21.2389 88.9385H17.2566V92.9208H21.2389V88.9385Z" fill="white"/>
<path d="M25.2213 88.9385H21.239V92.9208H25.2213V88.9385Z" fill="white"/>
<path d="M29.2035 88.9385H25.2212V92.9208H29.2035V88.9385Z" fill="black"/>
<path d="M33.1859 88.9385H29.2036V92.9208H33.1859V88.9385Z" fill="white"/>
<path d="M37.1681 88.9385H33.1858V92.9208H37.1681V88.9385Z" fill="black"/>
<path d="M41.1505 88.9385H37.1682V92.9208H41.1505V88.9385Z" fill="white"/>
<path d="M45.1327 88.9385H41.1504V92.9208H45.1327V88.9385Z" fill="black"/>
<path d="M49.1151 88.9385H45.1328V92.9208H49.1151V88.9385Z" fill="black"/>
<path d="M53.0973 88.9385H49.115V92.9208H53.0973V88.9385Z" fill="black"/>
<path d="M57.0797 88.9385H53.0974V92.9208H57.0797V88.9385Z" fill="white"/>
<path d="M61.0619 88.9385H57.0796V92.9208H61.0619V88.9385Z" fill="black"/>
<path d="M65.0443 88.9385H61.062V92.9208H65.0443V88.9385Z" fill="black"/>
<path d="M69.0265 88.9385H65.0442V92.9208H69.0265V88.9385Z" fill="black"/>
<path d="M73.0089 88.9385H69.0266V92.9208H73.0089V88.9385Z" fill="black"/>
<path d="M76.9911 88.9385H73.0088V92.9208H76.9911V88.9385Z" fill="black"/>
<path d="M80.9735 88.9385H76.9912V92.9208H80.9735V88.9385Z" fill="black"/>
<path d="M84.9557 88.9385H80.9734V92.9208H84.9557V88.9385Z" fill="white"/>
<path d="M88.9381 88.9385H84.9558V92.9208H88.9381V88.9385Z" fill="black"/>
<path d="M92.9203 88.9385H88.938V92.9208H92.9203V88.9385Z" fill="white"/>
<path d="M96.9027 88.9385H92.9204V92.9208H96.9027V88.9385Z" fill="black"/>
<path d="M100.885 88.9385H96.9026V92.9208H100.885V88.9385Z" fill="white"/>
<path d="M104.867 88.9385H100.885V92.9208H104.867V88.9385Z" fill="black"/>
<path d="M108.849 88.9385H104.867V92.9208H108.849V88.9385Z" fill="black"/>
<path d="M112.832 88.9385H108.85V92.9208H112.832V88.9385Z" fill="white"/>
<path d="M116.814 88.9385H112.832V92.9208H116.814V88.9385Z" fill="white"/>
<path d="M120.797 88.9385H116.814V92.9208H120.797V88.9385Z" fill="black"/>
<path d="M124.779 88.9385H120.796V92.9208H124.779V88.9385Z" fill="white"/>
<path d="M128.761 88.9385H124.779V92.9208H128.761V88.9385Z" fill="white"/>
<path d="M132.743 88.9385H128.761V92.9208H132.743V88.9385Z" fill="white"/>
<path d="M136.726 88.9385H132.743V92.9208H136.726V88.9385Z" fill="white"/>
<path d="M140.708 88.9385H136.726V92.9208H140.708V88.9385Z" fill="white"/>
<path d="M13.2743 92.9199H9.29199V96.9022H13.2743V92.9199Z" fill="black"/>
<path d="M17.2567 92.9199H13.2744V96.9022H17.2567V92.9199Z" fill="white"/>
<path d="M21.2389 92.9199H17.2566V96.9022H21.2389V92.9199Z" fill="black"/>
<path d="M25.2213 92.9199H21.239V96.9022H25.2213V92.9199Z" fill="white"/>
<path d="M29.2035 92.9199H25.2212V96.9022H29.2035V92.9199Z" fill="black"/>
<path d="M33.1859 92.9199H29.2036V96.9022H33.1859V92.9199Z" fill="white"/>
<path d="M37.1681 92.9199H33.1858V96.9022H37.1681V92.9199Z" fill="white"/>
<path d="M41.1505 92.9199H37.1682V96.9022H41.1505V92.9199Z" fill="black"/>
<path d="M45.1327 92.9199H41.1504V96.9022H45.1327V92.9199Z" fill="black"/>
<path d="M49.1151 92.9199H45.1328V96.9022H49.1151V92.9199Z" fill="black"/>
<path d="M53.0973 92.9199H49.115V96.9022H53.0973V92.9199Z" fill="black"/>
<path d="M57.0797 92.9199H53.0974V96.9022H57.0797V92.9199Z" fill="white"/>
<path d="M61.0619 92.9199H57.0796V96.9022H61.0619V92.9199Z" fill="white"/>
<path d="M65.0443 92.9199H61.062V96.9022H65.0443V92.9199Z" fill="white"/>
<path d="M69.0265 92.9199H65.0442V96.9022H69.0265V92.9199Z" fill="black"/>
<path d="M73.0089 92.9199H69.0266V96.9022H73.0089V92.9199Z" fill="black"/>
<path d="M76.9911 92.9199H73.0088V96.9022H76.9911V92.9199Z" fill="white"/>
<path d="M80.9735 92.9199H76.9912V96.9022H80.9735V92.9199Z" fill="white"/>
<path d="M84.9557 92.9199H80.9734V96.9022H84.9557V92.9199Z" fill="white"/>
<path d="M88.9381 92.9199H84.9558V96.9022H88.9381V92.9199Z" fill="black"/>
<path d="M92.9203 92.9199H88.938V96.9022H92.9203V92.9199Z" fill="white"/>
<path d="M96.9027 92.9199H92.9204V96.9022H96.9027V92.9199Z" fill="white"/>
<path d="M100.885 92.9199H96.9026V96.9022H100.885V92.9199Z" fill="white"/>
<path d="M104.867 92.9199H100.885V96.9022H104.867V92.9199Z" fill="black"/>
<path d="M108.849 92.9199H104.867V96.9022H108.849V92.9199Z" fill="white"/>
<path d="M112.832 92.9199H108.85V96.9022H112.832V92.9199Z" fill="white"/>
<path d="M116.814 92.9199H112.832V96.9022H116.814V92.9199Z" fill="white"/>
<path d="M120.797 92.9199H116.814V96.9022H120.797V92.9199Z" fill="black"/>
<path d="M124.779 92.9199H120.796V96.9022H124.779V92.9199Z" fill="black"/>
<path d="M128.761 92.9199H124.779V96.9022H128.761V92.9199Z" fill="black"/>
<path d="M132.743 92.9199H128.761V96.9022H132.743V92.9199Z" fill="white"/>
<path d="M136.726 92.9199H132.743V96.9022H136.726V92.9199Z" fill="black"/>
<path d="M140.708 92.9199H136.726V96.9022H140.708V92.9199Z" fill="white"/>
<path d="M13.2743 96.9023H9.29199V100.885H13.2743V96.9023Z" fill="black"/>
<path d="M17.2567 96.9023H13.2744V100.885H17.2567V96.9023Z" fill="white"/>
<path d="M21.2389 96.9023H17.2566V100.885H21.2389V96.9023Z" fill="white"/>
<path d="M25.2213 96.9023H21.239V100.885H25.2213V96.9023Z" fill="white"/>
<path d="M29.2035 96.9023H25.2212V100.885H29.2035V96.9023Z" fill="black"/>
<path d="M33.1859 96.9023H29.2036V100.885H33.1859V96.9023Z" fill="white"/>
<path d="M37.1681 96.9023H33.1858V100.885H37.1681V96.9023Z" fill="black"/>
<path d="M41.1505 96.9023H37.1682V100.885H41.1505V96.9023Z" fill="white"/>
<path d="M45.1327 96.9023H41.1504V100.885H45.1327V96.9023Z" fill="black"/>
<path d="M49.1151 96.9023H45.1328V100.885H49.1151V96.9023Z" fill="black"/>
<path d="M53.0973 96.9023H49.115V100.885H53.0973V96.9023Z" fill="black"/>
<path d="M57.0797 96.9023H53.0974V100.885H57.0797V96.9023Z" fill="white"/>
<path d="M61.0619 96.9023H57.0796V100.885H61.0619V96.9023Z" fill="black"/>
<path d="M65.0443 96.9023H61.062V100.885H65.0443V96.9023Z" fill="white"/>
<path d="M69.0265 96.9023H65.0442V100.885H69.0265V96.9023Z" fill="black"/>
<path d="M73.0089 96.9023H69.0266V100.885H73.0089V96.9023Z" fill="black"/>
<path d="M76.9911 96.9023H73.0088V100.885H76.9911V96.9023Z" fill="black"/>
<path d="M80.9735 96.9023H76.9912V100.885H80.9735V96.9023Z" fill="black"/>
<path d="M84.9557 96.9023H80.9734V100.885H84.9557V96.9023Z" fill="black"/>
<path d="M88.9381 96.9023H84.9558V100.885H88.9381V96.9023Z" fill="white"/>
<path d="M92.9203 96.9023H88.938V100.885H92.9203V96.9023Z" fill="white"/>
<path d="M96.9027 96.9023H92.9204V100.885H96.9027V96.9023Z" fill="white"/>
<path d="M100.885 96.9023H96.9026V100.885H100.885V96.9023Z" fill="black"/>
<path d="M104.867 96.9023H100.885V100.885H104.867V96.9023Z" fill="black"/>
<path d="M108.849 96.9023H104.867V100.885H108.849V96.9023Z" fill="black"/>
<path d="M112.832 96.9023H108.85V100.885H112.832V96.9023Z" fill="black"/>
<path d="M116.814 96.9023H112.832V100.885H116.814V96.9023Z" fill="white"/>
<path d="M120.797 96.9023H116.814V100.885H120.797V96.9023Z" fill="white"/>
<path d="M124.779 96.9023H120.796V100.885H124.779V96.9023Z" fill="black"/>
<path d="M128.761 96.9023H124.779V100.885H128.761V96.9023Z" fill="white"/>
<path d="M132.743 96.9023H128.761V100.885H132.743V96.9023Z" fill="white"/>
<path d="M136.726 96.9023H132.743V100.885H136.726V96.9023Z" fill="black"/>
<path d="M140.708 96.9023H136.726V100.885H140.708V96.9023Z" fill="black"/>
<path d="M13.2743 100.885H9.29199V104.867H13.2743V100.885Z" fill="black"/>
<path d="M17.2567 100.885H13.2744V104.867H17.2567V100.885Z" fill="white"/>
<path d="M21.2389 100.885H17.2566V104.867H21.2389V100.885Z" fill="black"/>
<path d="M25.2213 100.885H21.239V104.867H25.2213V100.885Z" fill="black"/>
<path d="M29.2035 100.885H25.2212V104.867H29.2035V100.885Z" fill="black"/>
<path d="M33.1859 100.885H29.2036V104.867H33.1859V100.885Z" fill="black"/>
<path d="M37.1681 100.885H33.1858V104.867H37.1681V100.885Z" fill="white"/>
<path d="M41.1505 100.885H37.1682V104.867H41.1505V100.885Z" fill="white"/>
<path d="M45.1327 100.885H41.1504V104.867H45.1327V100.885Z" fill="black"/>
<path d="M49.1151 100.885H45.1328V104.867H49.1151V100.885Z" fill="black"/>
<path d="M53.0973 100.885H49.115V104.867H53.0973V100.885Z" fill="black"/>
<path d="M57.0797 100.885H53.0974V104.867H57.0797V100.885Z" fill="white"/>
<path d="M61.0619 100.885H57.0796V104.867H61.0619V100.885Z" fill="white"/>
<path d="M65.0443 100.885H61.062V104.867H65.0443V100.885Z" fill="white"/>
<path d="M69.0265 100.885H65.0442V104.867H69.0265V100.885Z" fill="black"/>
<path d="M73.0089 100.885H69.0266V104.867H73.0089V100.885Z" fill="white"/>
<path d="M76.9911 100.885H73.0088V104.867H76.9911V100.885Z" fill="white"/>
<path d="M80.9735 100.885H76.9912V104.867H80.9735V100.885Z" fill="black"/>
<path d="M84.9557 100.885H80.9734V104.867H84.9557V100.885Z" fill="white"/>
<path d="M88.9381 100.885H84.9558V104.867H88.9381V100.885Z" fill="black"/>
<path d="M92.9203 100.885H88.938V104.867H92.9203V100.885Z" fill="black"/>
<path d="M96.9027 100.885H92.9204V104.867H96.9027V100.885Z" fill="white"/>
<path d="M100.885 100.885H96.9026V104.867H100.885V100.885Z" fill="white"/>
<path d="M104.867 100.885H100.885V104.867H104.867V100.885Z" fill="black"/>
<path d="M108.849 100.885H104.867V104.867H108.849V100.885Z" fill="white"/>
<path d="M112.832 100.885H108.85V104.867H112.832V100.885Z" fill="black"/>
<path d="M116.814 100.885H112.832V104.867H116.814V100.885Z" fill="black"/>
<path d="M120.797 100.885H116.814V104.867H120.797V100.885Z" fill="white"/>
<path d="M124.779 100.885H120.796V104.867H124.779V100.885Z" fill="black"/>
<path d="M128.761 100.885H124.779V104.867H128.761V100.885Z" fill="white"/>
<path d="M132.743 100.885H128.761V104.867H132.743V100.885Z" fill="black"/>
<path d="M136.726 100.885H132.743V104.867H136.726V100.885Z" fill="white"/>
<path d="M140.708 100.885H136.726V104.867H140.708V100.885Z" fill="white"/>
<path d="M13.2743 104.867H9.29199V108.849H13.2743V104.867Z" fill="black"/>
<path d="M17.2567 104.867H13.2744V108.849H17.2567V104.867Z" fill="black"/>
<path d="M21.2389 104.867H17.2566V108.849H21.2389V104.867Z" fill="white"/>
<path d="M25.2213 104.867H21.239V108.849H25.2213V104.867Z" fill="black"/>
<path d="M29.2035 104.867H25.2212V108.849H29.2035V104.867Z" fill="white"/>
<path d="M33.1859 104.867H29.2036V108.849H33.1859V104.867Z" fill="black"/>
<path d="M37.1681 104.867H33.1858V108.849H37.1681V104.867Z" fill="black"/>
<path d="M41.1505 104.867H37.1682V108.849H41.1505V104.867Z" fill="white"/>
<path d="M45.1327 104.867H41.1504V108.849H45.1327V104.867Z" fill="black"/>
<path d="M49.1151 104.867H45.1328V108.849H49.1151V104.867Z" fill="black"/>
<path d="M53.0973 104.867H49.115V108.849H53.0973V104.867Z" fill="white"/>
<path d="M57.0797 104.867H53.0974V108.849H57.0797V104.867Z" fill="white"/>
<path d="M61.0619 104.867H57.0796V108.849H61.0619V104.867Z" fill="white"/>
<path d="M65.0443 104.867H61.062V108.849H65.0443V104.867Z" fill="black"/>
<path d="M69.0265 104.867H65.0442V108.849H69.0265V104.867Z" fill="black"/>
<path d="M73.0089 104.867H69.0266V108.849H73.0089V104.867Z" fill="black"/>
<path d="M76.9911 104.867H73.0088V108.849H76.9911V104.867Z" fill="white"/>
<path d="M80.9735 104.867H76.9912V108.849H80.9735V104.867Z" fill="white"/>
<path d="M84.9557 104.867H80.9734V108.849H84.9557V104.867Z" fill="white"/>
<path d="M88.9381 104.867H84.9558V108.849H88.9381V104.867Z" fill="black"/>
<path d="M92.9203 104.867H88.938V108.849H92.9203V104.867Z" fill="white"/>
<path d="M96.9027 104.867H92.9204V108.849H96.9027V104.867Z" fill="white"/>
<path d="M100.885 104.867H96.9026V108.849H100.885V104.867Z" fill="black"/>
<path d="M104.867 104.867H100.885V108.849H104.867V104.867Z" fill="white"/>
<path d="M108.849 104.867H104.867V108.849H108.849V104.867Z" fill="black"/>
<path d="M112.832 104.867H108.85V108.849H112.832V104.867Z" fill="black"/>
<path d="M116.814 104.867H112.832V108.849H116.814V104.867Z" fill="black"/>
<path d="M120.797 104.867H116.814V108.849H120.797V104.867Z" fill="black"/>
<path d="M124.779 104.867H120.796V108.849H124.779V104.867Z" fill="black"/>
<path d="M128.761 104.867H124.779V108.849H128.761V104.867Z" fill="black"/>
<path d="M132.743 104.867H128.761V108.849H132.743V104.867Z" fill="white"/>
<path d="M136.726 104.867H132.743V108.849H136.726V104.867Z" fill="black"/>
<path d="M140.708 104.867H136.726V108.849H140.708V104.867Z" fill="white"/>
<path d="M13.2743 108.85H9.29199V112.832H13.2743V108.85Z" fill="white"/>
<path d="M17.2567 108.85H13.2744V112.832H17.2567V108.85Z" fill="white"/>
<path d="M21.2389 108.85H17.2566V112.832H21.2389V108.85Z" fill="white"/>
<path d="M25.2213 108.85H21.239V112.832H25.2213V108.85Z" fill="white"/>
<path d="M29.2035 108.85H25.2212V112.832H29.2035V108.85Z" fill="white"/>
<path d="M33.1859 108.85H29.2036V112.832H33.1859V108.85Z" fill="white"/>
<path d="M37.1681 108.85H33.1858V112.832H37.1681V108.85Z" fill="white"/>
<path d="M41.1505 108.85H37.1682V112.832H41.1505V108.85Z" fill="white"/>
<path d="M45.1327 108.85H41.1504V112.832H45.1327V108.85Z" fill="black"/>
<path d="M49.1151 108.85H45.1328V112.832H49.1151V108.85Z" fill="black"/>
<path d="M53.0973 108.85H49.115V112.832H53.0973V108.85Z" fill="black"/>
<path d="M57.0797 108.85H53.0974V112.832H57.0797V108.85Z" fill="white"/>
<path d="M61.0619 108.85H57.0796V112.832H61.0619V108.85Z" fill="black"/>
<path d="M65.0443 108.85H61.062V112.832H65.0443V108.85Z" fill="white"/>
<path d="M69.0265 108.85H65.0442V112.832H69.0265V108.85Z" fill="white"/>
<path d="M73.0089 108.85H69.0266V112.832H73.0089V108.85Z" fill="black"/>
<path d="M76.9911 108.85H73.0088V112.832H76.9911V108.85Z" fill="black"/>
<path d="M80.9735 108.85H76.9912V112.832H80.9735V108.85Z" fill="white"/>
<path d="M84.9557 108.85H80.9734V112.832H84.9557V108.85Z" fill="white"/>
<path d="M88.9381 108.85H84.9558V112.832H88.9381V108.85Z" fill="white"/>
<path d="M92.9203 108.85H88.938V112.832H92.9203V108.85Z" fill="white"/>
<path d="M96.9027 108.85H92.9204V112.832H96.9027V108.85Z" fill="black"/>
<path d="M100.885 108.85H96.9026V112.832H100.885V108.85Z" fill="white"/>
<path d="M104.867 108.85H100.885V112.832H104.867V108.85Z" fill="white"/>
<path d="M108.849 108.85H104.867V112.832H108.849V108.85Z" fill="black"/>
<path d="M112.832 108.85H108.85V112.832H112.832V108.85Z" fill="white"/>
<path d="M116.814 108.85H112.832V112.832H116.814V108.85Z" fill="white"/>
<path d="M120.797 108.85H116.814V112.832H120.797V108.85Z" fill="white"/>
<path d="M124.779 108.85H120.796V112.832H124.779V108.85Z" fill="black"/>
<path d="M128.761 108.85H124.779V112.832H128.761V108.85Z" fill="white"/>
<path d="M132.743 108.85H128.761V112.832H132.743V108.85Z" fill="white"/>
<path d="M136.726 108.85H132.743V112.832H136.726V108.85Z" fill="black"/>
<path d="M140.708 108.85H136.726V112.832H140.708V108.85Z" fill="white"/>
<path d="M13.2743 112.832H9.29199V116.814H13.2743V112.832Z" fill="black"/>
<path d="M17.2567 112.832H13.2744V116.814H17.2567V112.832Z" fill="black"/>
<path d="M21.2389 112.832H17.2566V116.814H21.2389V112.832Z" fill="black"/>
<path d="M25.2213 112.832H21.239V116.814H25.2213V112.832Z" fill="black"/>
<path d="M29.2035 112.832H25.2212V116.814H29.2035V112.832Z" fill="black"/>
<path d="M33.1859 112.832H29.2036V116.814H33.1859V112.832Z" fill="black"/>
<path d="M37.1681 112.832H33.1858V116.814H37.1681V112.832Z" fill="black"/>
<path d="M41.1505 112.832H37.1682V116.814H41.1505V112.832Z" fill="white"/>
<path d="M45.1327 112.832H41.1504V116.814H45.1327V112.832Z" fill="white"/>
<path d="M49.1151 112.832H45.1328V116.814H49.1151V112.832Z" fill="black"/>
<path d="M53.0973 112.832H49.115V116.814H53.0973V112.832Z" fill="black"/>
<path d="M57.0797 112.832H53.0974V116.814H57.0797V112.832Z" fill="white"/>
<path d="M61.0619 112.832H57.0796V116.814H61.0619V112.832Z" fill="white"/>
<path d="M65.0443 112.832H61.062V116.814H65.0443V112.832Z" fill="white"/>
<path d="M69.0265 112.832H65.0442V116.814H69.0265V112.832Z" fill="black"/>
<path d="M73.0089 112.832H69.0266V116.814H73.0089V112.832Z" fill="black"/>
<path d="M76.9911 112.832H73.0088V116.814H76.9911V112.832Z" fill="black"/>
<path d="M80.9735 112.832H76.9912V116.814H80.9735V112.832Z" fill="black"/>
<path d="M84.9557 112.832H80.9734V116.814H84.9557V112.832Z" fill="black"/>
<path d="M88.9381 112.832H84.9558V116.814H88.9381V112.832Z" fill="black"/>
<path d="M92.9203 112.832H88.938V116.814H92.9203V112.832Z" fill="black"/>
<path d="M96.9027 112.832H92.9204V116.814H96.9027V112.832Z" fill="white"/>
<path d="M100.885 112.832H96.9026V116.814H100.885V112.832Z" fill="white"/>
<path d="M104.867 112.832H100.885V116.814H104.867V112.832Z" fill="black"/>
<path d="M108.849 112.832H104.867V116.814H108.849V112.832Z" fill="black"/>
<path d="M112.832 112.832H108.85V116.814H112.832V112.832Z" fill="white"/>
<path d="M116.814 112.832H112.832V116.814H116.814V112.832Z" fill="black"/>
<path d="M120.797 112.832H116.814V116.814H120.797V112.832Z" fill="white"/>
<path d="M124.779 112.832H120.796V116.814H124.779V112.832Z" fill="black"/>
<path d="M128.761 112.832H124.779V116.814H128.761V112.832Z" fill="black"/>
<path d="M132.743 112.832H128.761V116.814H132.743V112.832Z" fill="black"/>
<path d="M136.726 112.832H132.743V116.814H136.726V112.832Z" fill="white"/>
<path d="M140.708 112.832H136.726V116.814H140.708V112.832Z" fill="white"/>
<path d="M13.2743 116.814H9.29199V120.797H13.2743V116.814Z" fill="black"/>
<path d="M17.2567 116.814H13.2744V120.797H17.2567V116.814Z" fill="white"/>
<path d="M21.2389 116.814H17.2566V120.797H21.2389V116.814Z" fill="white"/>
<path d="M25.2213 116.814H21.239V120.797H25.2213V116.814Z" fill="white"/>
<path d="M29.2035 116.814H25.2212V120.797H29.2035V116.814Z" fill="white"/>
<path d="M33.1859 116.814H29.2036V120.797H33.1859V116.814Z" fill="white"/>
<path d="M37.1681 116.814H33.1858V120.797H37.1681V116.814Z" fill="black"/>
<path d="M41.1505 116.814H37.1682V120.797H41.1505V116.814Z" fill="white"/>
<path d="M45.1327 116.814H41.1504V120.797H45.1327V116.814Z" fill="white"/>
<path d="M49.1151 116.814H45.1328V120.797H49.1151V116.814Z" fill="black"/>
<path d="M53.0973 116.814H49.115V120.797H53.0973V116.814Z" fill="black"/>
<path d="M57.0797 116.814H53.0974V120.797H57.0797V116.814Z" fill="white"/>
<path d="M61.0619 116.814H57.0796V120.797H61.0619V116.814Z" fill="black"/>
<path d="M65.0443 116.814H61.062V120.797H65.0443V116.814Z" fill="black"/>
<path d="M69.0265 116.814H65.0442V120.797H69.0265V116.814Z" fill="black"/>
<path d="M73.0089 116.814H69.0266V120.797H73.0089V116.814Z" fill="black"/>
<path d="M76.9911 116.814H73.0088V120.797H76.9911V116.814Z" fill="black"/>
<path d="M80.9735 116.814H76.9912V120.797H80.9735V116.814Z" fill="white"/>
<path d="M84.9557 116.814H80.9734V120.797H84.9557V116.814Z" fill="black"/>
<path d="M88.9381 116.814H84.9558V120.797H88.9381V116.814Z" fill="white"/>
<path d="M92.9203 116.814H88.938V120.797H92.9203V116.814Z" fill="black"/>
<path d="M96.9027 116.814H92.9204V120.797H96.9027V116.814Z" fill="white"/>
<path d="M100.885 116.814H96.9026V120.797H100.885V116.814Z" fill="white"/>
<path d="M104.867 116.814H100.885V120.797H104.867V116.814Z" fill="black"/>
<path d="M108.849 116.814H104.867V120.797H108.849V116.814Z" fill="black"/>
<path d="M112.832 116.814H108.85V120.797H112.832V116.814Z" fill="white"/>
<path d="M116.814 116.814H112.832V120.797H116.814V116.814Z" fill="white"/>
<path d="M120.797 116.814H116.814V120.797H120.797V116.814Z" fill="white"/>
<path d="M124.779 116.814H120.796V120.797H124.779V116.814Z" fill="black"/>
<path d="M128.761 116.814H124.779V120.797H128.761V116.814Z" fill="black"/>
<path d="M132.743 116.814H128.761V120.797H132.743V116.814Z" fill="black"/>
<path d="M136.726 116.814H132.743V120.797H136.726V116.814Z" fill="black"/>
<path d="M140.708 116.814H136.726V120.797H140.708V116.814Z" fill="white"/>
<path d="M13.2743 120.797H9.29199V124.779H13.2743V120.797Z" fill="black"/>
<path d="M17.2567 120.797H13.2744V124.779H17.2567V120.797Z" fill="white"/>
<path d="M21.2389 120.797H17.2566V124.779H21.2389V120.797Z" fill="black"/>
<path d="M25.2213 120.797H21.239V124.779H25.2213V120.797Z" fill="black"/>
<path d="M29.2035 120.797H25.2212V124.779H29.2035V120.797Z" fill="black"/>
<path d="M33.1859 120.797H29.2036V124.779H33.1859V120.797Z" fill="white"/>
<path d="M37.1681 120.797H33.1858V124.779H37.1681V120.797Z" fill="black"/>
<path d="M41.1505 120.797H37.1682V124.779H41.1505V120.797Z" fill="white"/>
<path d="M45.1327 120.797H41.1504V124.779H45.1327V120.797Z" fill="black"/>
<path d="M49.1151 120.797H45.1328V124.779H49.1151V120.797Z" fill="black"/>
<path d="M53.0973 120.797H49.115V124.779H53.0973V120.797Z" fill="black"/>
<path d="M57.0797 120.797H53.0974V124.779H57.0797V120.797Z" fill="black"/>
<path d="M61.0619 120.797H57.0796V124.779H61.0619V120.797Z" fill="black"/>
<path d="M65.0443 120.797H61.062V124.779H65.0443V120.797Z" fill="white"/>
<path d="M69.0265 120.797H65.0442V124.779H69.0265V120.797Z" fill="white"/>
<path d="M73.0089 120.797H69.0266V124.779H73.0089V120.797Z" fill="black"/>
<path d="M76.9911 120.797H73.0088V124.779H76.9911V120.797Z" fill="black"/>
<path d="M80.9735 120.797H76.9912V124.779H80.9735V120.797Z" fill="white"/>
<path d="M84.9557 120.797H80.9734V124.779H84.9557V120.797Z" fill="black"/>
<path d="M88.9381 120.797H84.9558V124.779H88.9381V120.797Z" fill="black"/>
<path d="M92.9203 120.797H88.938V124.779H92.9203V120.797Z" fill="black"/>
<path d="M96.9027 120.797H92.9204V124.779H96.9027V120.797Z" fill="white"/>
<path d="M100.885 120.797H96.9026V124.779H100.885V120.797Z" fill="black"/>
<path d="M104.867 120.797H100.885V124.779H104.867V120.797Z" fill="black"/>
<path d="M108.849 120.797H104.867V124.779H108.849V120.797Z" fill="black"/>
<path d="M112.832 120.797H108.85V124.779H112.832V120.797Z" fill="black"/>
<path d="M116.814 120.797H112.832V124.779H116.814V120.797Z" fill="black"/>
<path d="M120.797 120.797H116.814V124.779H120.797V120.797Z" fill="black"/>
<path d="M124.779 120.797H120.796V124.779H124.779V120.797Z" fill="black"/>
<path d="M128.761 120.797H124.779V124.779H128.761V120.797Z" fill="black"/>
<path d="M132.743 120.797H128.761V124.779H132.743V120.797Z" fill="white"/>
<path d="M136.726 120.797H132.743V124.779H136.726V120.797Z" fill="black"/>
<path d="M140.708 120.797H136.726V124.779H140.708V120.797Z" fill="black"/>
<path d="M13.2743 124.778H9.29199V128.761H13.2743V124.778Z" fill="black"/>
<path d="M17.2567 124.778H13.2744V128.761H17.2567V124.778Z" fill="white"/>
<path d="M21.2389 124.778H17.2566V128.761H21.2389V124.778Z" fill="black"/>
<path d="M25.2213 124.778H21.239V128.761H25.2213V124.778Z" fill="black"/>
<path d="M29.2035 124.778H25.2212V128.761H29.2035V124.778Z" fill="black"/>
<path d="M33.1859 124.778H29.2036V128.761H33.1859V124.778Z" fill="white"/>
<path d="M37.1681 124.778H33.1858V128.761H37.1681V124.778Z" fill="black"/>
<path d="M41.1505 124.778H37.1682V128.761H41.1505V124.778Z" fill="white"/>
<path d="M45.1327 124.778H41.1504V128.761H45.1327V124.778Z" fill="black"/>
<path d="M49.1151 124.778H45.1328V128.761H49.1151V124.778Z" fill="white"/>
<path d="M53.0973 124.778H49.115V128.761H53.0973V124.778Z" fill="black"/>
<path d="M57.0797 124.778H53.0974V128.761H57.0797V124.778Z" fill="black"/>
<path d="M61.0619 124.778H57.0796V128.761H61.0619V124.778Z" fill="white"/>
<path d="M65.0443 124.778H61.062V128.761H65.0443V124.778Z" fill="white"/>
<path d="M69.0265 124.778H65.0442V128.761H69.0265V124.778Z" fill="white"/>
<path d="M73.0089 124.778H69.0266V128.761H73.0089V124.778Z" fill="black"/>
<path d="M76.9911 124.778H73.0088V128.761H76.9911V124.778Z" fill="white"/>
<path d="M80.9735 124.778H76.9912V128.761H80.9735V124.778Z" fill="white"/>
<path d="M84.9557 124.778H80.9734V128.761H84.9557V124.778Z" fill="white"/>
<path d="M88.9381 124.778H84.9558V128.761H88.9381V124.778Z" fill="black"/>
<path d="M92.9203 124.778H88.938V128.761H92.9203V124.778Z" fill="black"/>
<path d="M96.9027 124.778H92.9204V128.761H96.9027V124.778Z" fill="white"/>
<path d="M100.885 124.778H96.9026V128.761H100.885V124.778Z" fill="white"/>
<path d="M104.867 124.778H100.885V128.761H104.867V124.778Z" fill="white"/>
<path d="M108.849 124.778H104.867V128.761H108.849V124.778Z" fill="black"/>
<path d="M112.832 124.778H108.85V128.761H112.832V124.778Z" fill="black"/>
<path d="M116.814 124.778H112.832V128.761H116.814V124.778Z" fill="white"/>
<path d="M120.797 124.778H116.814V128.761H120.797V124.778Z" fill="white"/>
<path d="M124.779 124.778H120.796V128.761H124.779V124.778Z" fill="white"/>
<path d="M128.761 124.778H124.779V128.761H128.761V124.778Z" fill="black"/>
<path d="M132.743 124.778H128.761V128.761H132.743V124.778Z" fill="black"/>
<path d="M136.726 124.778H132.743V128.761H136.726V124.778Z" fill="black"/>
<path d="M140.708 124.778H136.726V128.761H140.708V124.778Z" fill="black"/>
<path d="M13.2743 128.761H9.29199V132.743H13.2743V128.761Z" fill="black"/>
<path d="M17.2567 128.761H13.2744V132.743H17.2567V128.761Z" fill="white"/>
<path d="M21.2389 128.761H17.2566V132.743H21.2389V128.761Z" fill="black"/>
<path d="M25.2213 128.761H21.239V132.743H25.2213V128.761Z" fill="black"/>
<path d="M29.2035 128.761H25.2212V132.743H29.2035V128.761Z" fill="black"/>
<path d="M33.1859 128.761H29.2036V132.743H33.1859V128.761Z" fill="white"/>
<path d="M37.1681 128.761H33.1858V132.743H37.1681V128.761Z" fill="black"/>
<path d="M41.1505 128.761H37.1682V132.743H41.1505V128.761Z" fill="white"/>
<path d="M45.1327 128.761H41.1504V132.743H45.1327V128.761Z" fill="white"/>
<path d="M49.1151 128.761H45.1328V132.743H49.1151V128.761Z" fill="white"/>
<path d="M53.0973 128.761H49.115V132.743H53.0973V128.761Z" fill="black"/>
<path d="M57.0797 128.761H53.0974V132.743H57.0797V128.761Z" fill="white"/>
<path d="M61.0619 128.761H57.0796V132.743H61.0619V128.761Z" fill="black"/>
<path d="M65.0443 128.761H61.062V132.743H65.0443V128.761Z" fill="black"/>
<path d="M69.0265 128.761H65.0442V132.743H69.0265V128.761Z" fill="black"/>
<path d="M73.0089 128.761H69.0266V132.743H73.0089V128.761Z" fill="black"/>
<path d="M76.9911 128.761H73.0088V132.743H76.9911V128.761Z" fill="black"/>
<path d="M80.9735 128.761H76.9912V132.743H80.9735V128.761Z" fill="black"/>
<path d="M84.9557 128.761H80.9734V132.743H84.9557V128.761Z" fill="white"/>
<path d="M88.9381 128.761H84.9558V132.743H88.9381V128.761Z" fill="black"/>
<path d="M92.9203 128.761H88.938V132.743H92.9203V128.761Z" fill="black"/>
<path d="M96.9027 128.761H92.9204V132.743H96.9027V128.761Z" fill="black"/>
<path d="M100.885 128.761H96.9026V132.743H100.885V128.761Z" fill="white"/>
<path d="M104.867 128.761H100.885V132.743H104.867V128.761Z" fill="white"/>
<path d="M108.849 128.761H104.867V132.743H108.849V128.761Z" fill="black"/>
<path d="M112.832 128.761H108.85V132.743H112.832V128.761Z" fill="black"/>
<path d="M116.814 128.761H112.832V132.743H116.814V128.761Z" fill="white"/>
<path d="M120.797 128.761H116.814V132.743H120.797V128.761Z" fill="white"/>
<path d="M124.779 128.761H120.796V132.743H124.779V128.761Z" fill="black"/>
<path d="M128.761 128.761H124.779V132.743H128.761V128.761Z" fill="white"/>
<path d="M132.743 128.761H128.761V132.743H132.743V128.761Z" fill="white"/>
<path d="M136.726 128.761H132.743V132.743H136.726V128.761Z" fill="black"/>
<path d="M140.708 128.761H136.726V132.743H140.708V128.761Z" fill="black"/>
<path d="M13.2743 132.743H9.29199V136.725H13.2743V132.743Z" fill="black"/>
<path d="M17.2567 132.743H13.2744V136.725H17.2567V132.743Z" fill="white"/>
<path d="M21.2389 132.743H17.2566V136.725H21.2389V132.743Z" fill="white"/>
<path d="M25.2213 132.743H21.239V136.725H25.2213V132.743Z" fill="white"/>
<path d="M29.2035 132.743H25.2212V136.725H29.2035V132.743Z" fill="white"/>
<path d="M33.1859 132.743H29.2036V136.725H33.1859V132.743Z" fill="white"/>
<path d="M37.1681 132.743H33.1858V136.725H37.1681V132.743Z" fill="black"/>
<path d="M41.1505 132.743H37.1682V136.725H41.1505V132.743Z" fill="white"/>
<path d="M45.1327 132.743H41.1504V136.725H45.1327V132.743Z" fill="black"/>
<path d="M49.1151 132.743H45.1328V136.725H49.1151V132.743Z" fill="black"/>
<path d="M53.0973 132.743H49.115V136.725H53.0973V132.743Z" fill="white"/>
<path d="M57.0797 132.743H53.0974V136.725H57.0797V132.743Z" fill="black"/>
<path d="M61.0619 132.743H57.0796V136.725H61.0619V132.743Z" fill="white"/>
<path d="M65.0443 132.743H61.062V136.725H65.0443V132.743Z" fill="black"/>
<path d="M69.0265 132.743H65.0442V136.725H69.0265V132.743Z" fill="white"/>
<path d="M73.0089 132.743H69.0266V136.725H73.0089V132.743Z" fill="white"/>
<path d="M76.9911 132.743H73.0088V136.725H76.9911V132.743Z" fill="black"/>
<path d="M80.9735 132.743H76.9912V136.725H80.9735V132.743Z" fill="white"/>
<path d="M84.9557 132.743H80.9734V136.725H84.9557V132.743Z" fill="white"/>
<path d="M88.9381 132.743H84.9558V136.725H88.9381V132.743Z" fill="black"/>
<path d="M92.9203 132.743H88.938V136.725H92.9203V132.743Z" fill="black"/>
<path d="M96.9027 132.743H92.9204V136.725H96.9027V132.743Z" fill="white"/>
<path d="M100.885 132.743H96.9026V136.725H100.885V132.743Z" fill="black"/>
<path d="M104.867 132.743H100.885V136.725H104.867V132.743Z" fill="white"/>
<path d="M108.849 132.743H104.867V136.725H108.849V132.743Z" fill="white"/>
<path d="M112.832 132.743H108.85V136.725H112.832V132.743Z" fill="white"/>
<path d="M116.814 132.743H112.832V136.725H116.814V132.743Z" fill="white"/>
<path d="M120.797 132.743H116.814V136.725H120.797V132.743Z" fill="black"/>
<path d="M124.779 132.743H120.796V136.725H124.779V132.743Z" fill="white"/>
<path d="M128.761 132.743H124.779V136.725H128.761V132.743Z" fill="black"/>
<path d="M132.743 132.743H128.761V136.725H132.743V132.743Z" fill="black"/>
<path d="M136.726 132.743H132.743V136.725H136.726V132.743Z" fill="black"/>
<path d="M140.708 132.743H136.726V136.725H140.708V132.743Z" fill="black"/>
<path d="M13.2743 136.726H9.29199V140.708H13.2743V136.726Z" fill="black"/>
<path d="M17.2567 136.726H13.2744V140.708H17.2567V136.726Z" fill="black"/>
<path d="M21.2389 136.726H17.2566V140.708H21.2389V136.726Z" fill="black"/>
<path d="M25.2213 136.726H21.239V140.708H25.2213V136.726Z" fill="black"/>
<path d="M29.2035 136.726H25.2212V140.708H29.2035V136.726Z" fill="black"/>
<path d="M33.1859 136.726H29.2036V140.708H33.1859V136.726Z" fill="black"/>
<path d="M37.1681 136.726H33.1858V140.708H37.1681V136.726Z" fill="black"/>
<path d="M41.1505 136.726H37.1682V140.708H41.1505V136.726Z" fill="white"/>
<path d="M45.1327 136.726H41.1504V140.708H45.1327V136.726Z" fill="black"/>
<path d="M49.1151 136.726H45.1328V140.708H49.1151V136.726Z" fill="white"/>
<path d="M53.0973 136.726H49.115V140.708H53.0973V136.726Z" fill="black"/>
<path d="M57.0797 136.726H53.0974V140.708H57.0797V136.726Z" fill="black"/>
<path d="M61.0619 136.726H57.0796V140.708H61.0619V136.726Z" fill="white"/>
<path d="M65.0443 136.726H61.062V140.708H65.0443V136.726Z" fill="black"/>
<path d="M69.0265 136.726H65.0442V140.708H69.0265V136.726Z" fill="white"/>
<path d="M73.0089 136.726H69.0266V140.708H73.0089V136.726Z" fill="black"/>
<path d="M76.9911 136.726H73.0088V140.708H76.9911V136.726Z" fill="white"/>
<path d="M80.9735 136.726H76.9912V140.708H80.9735V136.726Z" fill="black"/>
<path d="M84.9557 136.726H80.9734V140.708H84.9557V136.726Z" fill="white"/>
<path d="M88.9381 136.726H84.9558V140.708H88.9381V136.726Z" fill="black"/>
<path d="M92.9203 136.726H88.938V140.708H92.9203V136.726Z" fill="black"/>
<path d="M96.9027 136.726H92.9204V140.708H96.9027V136.726Z" fill="white"/>
<path d="M100.885 136.726H96.9026V140.708H100.885V136.726Z" fill="white"/>
<path d="M104.867 136.726H100.885V140.708H104.867V136.726Z" fill="black"/>
<path d="M108.849 136.726H104.867V140.708H108.849V136.726Z" fill="black"/>
<path d="M112.832 136.726H108.85V140.708H112.832V136.726Z" fill="black"/>
<path d="M116.814 136.726H112.832V140.708H116.814V136.726Z" fill="black"/>
<path d="M120.797 136.726H116.814V140.708H120.797V136.726Z" fill="black"/>
<path d="M124.779 136.726H120.796V140.708H124.779V136.726Z" fill="white"/>
<path d="M128.761 136.726H124.779V140.708H128.761V136.726Z" fill="white"/>
<path d="M132.743 136.726H128.761V140.708H132.743V136.726Z" fill="white"/>
<path d="M136.726 136.726H132.743V140.708H136.726V136.726Z" fill="white"/>
<path d="M140.708 136.726H136.726V140.708H140.708V136.726Z" fill="white"/>
</svg>
